<svg width="240" height="172" viewBox="0 0 240 172" fill="none" xmlns="http://www.w3.org/2000/svg">
<mask id="path-1-inside-1_33_294" fill="white">
<path d="M0 52C0 118.274 53.7258 172 120 172C186.274 172 240 118.274 240 52V0H0V52Z"/>
</mask>
<path d="M0 52C0 118.274 53.7258 172 120 172C186.274 172 240 118.274 240 52V0H0V52Z" fill="#DDE2F3"/>
<path d="M-20 52C-20 129.32 42.6801 192 120 192C197.32 192 260 129.32 260 52H220C220 107.228 175.228 152 120 152C64.7715 152 20 107.228 20 52H-20ZM240 0H0H240ZM-20 0V52C-20 129.32 42.6801 192 120 192V152C64.7715 152 20 107.228 20 52V0H-20ZM120 192C197.32 192 260 129.32 260 52V0H220V52C220 107.228 175.228 152 120 152V192Z" fill="#94A4D4" mask="url(#path-1-inside-1_33_294)"/>
</svg>
