<svg width="40" height="40" viewBox="0 0 40 40" fill="none" xmlns="http://www.w3.org/2000/svg">
<path d="M19.9997 40C17.3047 40 14.773 38.82 13.0397 36.8C10.3947 37.0067 7.76305 36.0483 5.85638 34.1417C3.94971 32.2333 2.99471 29.61 3.19805 26.9583C1.17805 25.2267 -0.00195312 22.695 -0.00195312 20C-0.00195312 17.305 1.17805 14.7733 3.19805 13.0417C2.99471 10.39 3.94971 7.765 5.85638 5.85833C7.76305 3.95333 10.3947 3.005 13.0397 3.2C14.773 1.18 17.3047 0 19.9997 0C22.6947 0 25.2264 1.18 26.9597 3.2C29.6047 3.00167 32.238 3.95333 34.143 5.85833C36.0497 7.76667 37.0047 10.39 36.8014 13.0417C38.8214 14.7733 40.0014 17.305 40.0014 20C40.0014 22.695 38.8214 25.2267 36.8014 26.9583C37.0047 29.61 36.0497 32.235 34.143 34.1417C32.238 36.0483 29.6064 37.0067 26.9597 36.8C25.2264 38.82 22.6947 40 19.9997 40ZM14.543 33.175L15.1597 34.09C16.248 35.7033 18.058 36.6667 19.9997 36.6667C21.9414 36.6667 23.7514 35.7033 24.8397 34.09L25.4564 33.175L26.538 33.385C28.4514 33.7567 30.4097 33.1583 31.783 31.785C33.1564 30.41 33.7547 28.45 33.383 26.5417L33.1714 25.4583L34.088 24.8417C35.7014 23.7533 36.6647 21.9433 36.6647 20.0017C36.6647 18.06 35.7014 16.25 34.088 15.1617L33.1714 14.545L33.383 13.4617C33.7547 11.5533 33.1564 9.59167 31.783 8.21833C30.4097 6.845 28.4497 6.24833 26.538 6.61833L25.4564 6.82833L24.8397 5.91333C23.7514 4.3 21.9414 3.33667 19.9997 3.33667C18.058 3.33667 16.248 4.3 15.1597 5.91333L14.543 6.82833L13.4614 6.61833C11.5497 6.25167 9.58971 6.845 8.21638 8.21833C6.84305 9.59333 6.24471 11.5533 6.61638 13.4617L6.82805 14.545L5.91138 15.1617C4.29805 16.25 3.33471 18.06 3.33471 20.0017C3.33471 21.9433 4.29805 23.7533 5.91138 24.8417L6.82805 25.4583L6.61638 26.5417C6.24471 28.45 6.84305 30.4117 8.21638 31.785C9.58971 33.1567 11.5464 33.755 13.4614 33.385L14.543 33.175ZM19.8497 25.7L29.5047 16.1883L27.1647 13.8133L17.483 23.315L12.828 18.8033L10.5064 21.1983L15.143 25.6917C15.7947 26.3433 16.648 26.6667 17.503 26.6667C18.358 26.6667 19.2064 26.345 19.8497 25.7Z" fill="#2243A4"/>
</svg>
