<svg width="40" height="40" viewBox="0 0 40 40" fill="none" xmlns="http://www.w3.org/2000/svg">
<path d="M21.6667 12.5C21.6667 13.88 20.5467 15 19.1667 15C17.7867 15 16.6667 13.88 16.6667 12.5C16.6667 11.12 17.7867 10 19.1667 10C20.5467 10 21.6667 11.12 21.6667 12.5ZM9.16667 5C10.5467 5 11.6667 3.88 11.6667 2.5C11.6667 1.12 10.5467 0 9.16667 0C7.78667 0 6.66667 1.12 6.66667 2.5C6.66667 3.88 7.78667 5 9.16667 5ZM11.3667 15L21.09 0H16.9667L7.245 15H11.3667ZM38.725 21.6917L22.4117 40H5C2.24333 40 0 37.7567 0 35V23.3333C0 20.5767 2.24333 18.3333 5 18.3333H21.43C23.3283 18.3333 24.9933 19.3483 25.9117 20.865L31.2717 14.975C32.175 13.9833 33.4083 13.4017 34.7483 13.34C36.095 13.27 37.3717 13.74 38.3617 14.6433C40.385 16.4883 40.5467 19.65 38.725 21.6917ZM36.115 17.1067C35.7833 16.8033 35.35 16.6617 34.9017 16.67C34.4517 16.6917 34.0383 16.885 33.735 17.2183L26.3583 25.325C25.7167 27.11 24.1267 28.4767 22.1683 28.7567L13.5667 29.985L13.095 26.6867L21.6967 25.4583C22.6283 25.325 23.3317 24.515 23.3317 23.5733C23.3317 22.5233 22.4783 21.67 21.4283 21.67H5C4.08167 21.67 3.33333 22.4183 3.33333 23.3367V35.0033C3.33333 35.9217 4.08167 36.67 5 36.67H20.92L36.2383 19.4767C36.85 18.79 36.795 17.7283 36.1167 17.1083L36.115 17.1067Z" fill="#2243A4"/>
</svg>
