<svg width="40" height="40" viewBox="0 0 40 40" fill="none" xmlns="http://www.w3.org/2000/svg">
<path d="M3.33331 4.16667C3.33331 1.865 5.19831 0 7.49998 0C9.80165 0 11.6666 1.865 11.6666 4.16667C11.6666 6.46833 9.80165 8.33333 7.49998 8.33333C5.19831 8.33333 3.33331 6.46833 3.33331 4.16667ZM23.3333 13.3333C24.2533 13.3333 25 12.5883 25 11.6667C25 10.745 24.2533 10 23.3333 10H6.66665C2.98998 10 -1.96995e-05 12.99 -1.96995e-05 16.6667V21.6667C-1.96995e-05 22.5883 0.746647 23.3333 1.66665 23.3333C2.58665 23.3333 3.33331 22.5883 3.33331 21.6667V16.6667C3.33331 14.8283 4.82831 13.3333 6.66665 13.3333H9.99998V21.6667C9.99998 22.5883 10.7466 23.3333 11.6666 23.3333C12.5866 23.3333 13.3333 22.5883 13.3333 21.6667V13.3333H23.3333ZM32.5 0H16.6666C15.7466 0 15 0.745 15 1.66667C15 2.58833 15.7466 3.33333 16.6666 3.33333H32.5C34.7966 3.33333 36.6666 5.20167 36.6666 7.5V15.8333C36.6666 18.1317 34.7966 20 32.5 20H31.6666V18.3333C31.6666 17.4117 30.92 16.6667 30 16.6667H26.6666C25.7466 16.6667 25 17.4117 25 18.3333V20H18.3333C17.4133 20 16.6666 20.745 16.6666 21.6667C16.6666 22.5883 17.4133 23.3333 18.3333 23.3333H32.5C36.635 23.3333 40 19.9683 40 15.8333V7.5C40 3.365 36.635 0 32.5 0ZM34.1666 35C32.0716 35 30.1116 35.7967 28.7916 37.185C28.1566 37.8517 28.1833 38.9083 28.8517 39.5417C29.5183 40.1783 30.5733 40.1483 31.2083 39.4833C32.575 38.045 35.7583 38.045 37.1266 39.4833C37.4533 39.8267 37.8933 40.0017 38.335 40.0017C38.7483 40.0017 39.1617 39.85 39.4833 39.5433C40.15 38.91 40.1783 37.8533 39.5433 37.1867C38.2233 35.7983 36.265 35.0017 34.1683 35.0017L34.1666 35ZM20 35C17.905 35 15.945 35.7967 14.625 37.185C13.99 37.8517 14.0166 38.9083 14.685 39.5417C15.3516 40.1783 16.4083 40.1483 17.0416 39.4833C18.4083 38.045 21.5916 38.045 22.96 39.4833C23.2866 39.8267 23.7266 40.0017 24.1683 40.0017C24.5816 40.0017 24.995 39.85 25.3166 39.5433C25.9833 38.91 26.0116 37.8533 25.3766 37.1867C24.0566 35.7983 22.0983 35.0017 20.0016 35.0017L20 35ZM5.83331 35C3.73831 35 1.77831 35.7967 0.458314 37.185C-0.176686 37.8517 -0.15002 38.9083 0.518314 39.5417C1.18498 40.1783 2.24165 40.1483 2.87498 39.4833C4.24165 38.045 7.42498 38.045 8.79331 39.4833C9.11998 39.8267 9.55998 40.0017 10.0016 40.0017C10.415 40.0017 10.8283 39.85 11.15 39.5433C11.8166 38.91 11.845 37.8533 11.21 37.1867C9.88998 35.7983 7.93165 35.0017 5.83498 35.0017L5.83331 35ZM9.16665 30C9.16665 28.1583 7.67498 26.6667 5.83331 26.6667C3.99165 26.6667 2.49998 28.1583 2.49998 30C2.49998 31.8417 3.99165 33.3333 5.83331 33.3333C7.67498 33.3333 9.16665 31.8417 9.16665 30ZM23.3333 30C23.3333 28.1583 21.8416 26.6667 20 26.6667C18.1583 26.6667 16.6666 28.1583 16.6666 30C16.6666 31.8417 18.1583 33.3333 20 33.3333C21.8416 33.3333 23.3333 31.8417 23.3333 30ZM37.5 30C37.5 28.1583 36.0083 26.6667 34.1666 26.6667C32.325 26.6667 30.8333 28.1583 30.8333 30C30.8333 31.8417 32.325 33.3333 34.1666 33.3333C36.0083 33.3333 37.5 31.8417 37.5 30Z" fill="#2243A4"/>
</svg>
