<svg width="319" height="70" viewBox="0 0 319 70" fill="none" xmlns="http://www.w3.org/2000/svg">
<path d="M102.047 9.42236C103.356 10.5583 104.591 11.7336 105.812 12.9629C106.143 13.281 106.474 13.5992 106.816 13.927C112.763 20.0664 114.951 28.3928 114.892 36.7028C114.684 43.3656 112.672 48.9038 108.939 54.4443C108.705 54.8213 108.47 55.1983 108.229 55.5867C103.656 62.4026 95.1949 66.0839 87.3688 67.6828C76.9511 69.0258 67.8741 67.0289 59.2584 60.8934C57.8212 59.7104 57.3856 59.2499 56.75 57.4582C56.8068 56.1863 56.9186 55.1265 57.3364 53.9258C60.3071 54.1449 61.894 54.887 64.2428 56.6805C70.1512 60.965 77.1873 62.9419 84.5167 61.8929C92.4111 60.4893 98.9124 56.4499 103.564 49.9033C107.241 43.654 108.381 36.8746 107.019 29.7702C104.895 22.3886 100.848 17.0396 94.3445 12.9629C86.59 8.96526 79.2116 8.56456 70.8886 10.8888C67.5041 12.1672 64.7812 14.0361 62.0316 16.3575C60.9404 17.1432 60.2392 17.5072 58.9001 17.6295C57.4667 16.6249 57.4667 16.6249 56.2939 15.5555C56.2518 13.8797 56.548 12.779 57.6011 11.46C69.4426 0.128173 89.2128 -0.561605 102.047 9.42236Z" fill="#7A8582"/>
<path d="M46.9831 16.9713C47.9544 17.6296 47.9544 17.6296 48.4756 18.1481C48.513 18.9359 48.5193 19.7253 48.5082 20.5139C48.5035 20.9423 48.4988 21.3708 48.4939 21.8122C48.4879 22.143 48.4818 22.4739 48.4756 22.8148C45.2409 23.2345 43.6019 22.2131 40.9013 20.4977C36.7505 17.9365 32.0315 17.1711 27.2024 17.8889C21.3311 19.2648 16.0519 22.4004 12.6158 27.3761C9.83904 32.4343 9.03627 38.0282 10.4901 43.5879C12.8218 50.4055 16.6758 53.8189 23.004 56.9337C27.5727 58.8346 33.4387 58.7828 38.0833 57.1666C39.693 56.5044 40.9056 55.8288 42.351 54.8333C44.166 53.6843 45.3189 53.7275 47.4331 53.9259C48.2072 54.1826 48.2072 54.1826 48.9968 54.4444C48.6242 58.0277 48.6242 58.0277 46.8712 59.5061C39.6585 63.8749 31.6462 64.7333 23.3623 63.5387C17.0823 61.8422 11.5468 57.5246 8.16488 52.0382C4.65112 45.8511 3.33095 39.3202 4.71979 32.2636C6.74576 25.393 10.84 19.4794 16.9914 15.6831C26.8059 10.619 37.6855 11.1446 46.9831 16.9713Z" fill="#7A8582"/>
<path d="M31.4218 34.0906C32.1047 34.0862 32.1047 34.0862 32.8014 34.0817C33.5484 34.0848 33.5484 34.0848 34.3105 34.0881C34.8361 34.0862 35.3617 34.0844 35.9032 34.0826C37.6447 34.078 39.386 34.081 41.1275 34.0845C42.3356 34.0838 43.5438 34.0828 44.7519 34.0815C47.2859 34.08 49.8199 34.0822 52.3539 34.087C55.6042 34.093 58.8544 34.0896 62.1047 34.0833C64.6003 34.0796 67.0959 34.0808 69.5914 34.0835C70.79 34.0842 71.9885 34.0833 73.187 34.0809C74.8617 34.0783 76.5362 34.0823 78.2108 34.0881C78.9563 34.0849 78.9563 34.0849 79.7167 34.0817C80.1735 34.0846 80.6302 34.0875 81.1008 34.0906C81.4966 34.0909 81.8924 34.0913 82.3002 34.0917C83.5474 34.2399 84.3994 34.6436 85.4839 35.2593C85.6468 36.4584 85.6468 36.4584 85.4839 37.8519C83.1369 39.8831 80.5626 39.6274 77.6222 39.6087C77.0947 39.6114 76.5673 39.6142 76.0238 39.617C74.283 39.6238 72.5424 39.6193 70.8016 39.614C69.5924 39.6151 68.3833 39.6166 67.1741 39.6185C64.6419 39.6208 62.1099 39.6175 59.5777 39.6102C56.3261 39.6014 53.0747 39.6065 49.8231 39.6158C47.3276 39.6214 44.8321 39.6196 42.3366 39.6156C41.1372 39.6145 39.9378 39.6158 38.7384 39.6194C37.0661 39.6234 35.3941 39.6174 33.7218 39.6087C32.9732 39.6134 32.9732 39.6134 32.2095 39.6183C31.5288 39.6117 31.5288 39.6117 30.8344 39.605C30.2413 39.6041 30.2413 39.6041 29.6362 39.6032C28.6686 39.4074 28.6686 39.4074 27.6261 37.8519C27.4632 36.5232 27.4632 36.5232 27.6261 35.2593C29.2449 34.1857 29.5886 34.0924 31.4218 34.0906Z" fill="#7A8582"/>
<path d="M263.749 17.6294C265.512 17.6081 267.275 17.5867 269.092 17.5646C269.644 17.5552 270.197 17.5458 270.766 17.536C271.205 17.5334 271.644 17.5308 272.097 17.5282C272.545 17.5227 272.992 17.5173 273.454 17.5117C274.824 17.6417 275.628 17.9237 276.78 18.6665C277.894 20.329 277.977 20.857 277.985 22.7822C277.999 23.447 277.999 23.447 278.012 24.1251C277.789 25.6365 277.261 26.3474 276.259 27.4813C276.507 27.6912 276.756 27.9011 277.012 28.1173C278.425 29.7209 278.399 31.6353 278.344 33.7035C277.343 36.3968 276.451 36.46 273.653 37.8517C270.384 37.8517 267.116 37.8517 263.749 37.8517C263.749 31.1783 263.749 24.505 263.749 17.6294ZM266.355 19.7035C266.355 21.928 266.355 24.1524 266.355 26.4443C267.694 26.4763 267.694 26.4763 269.059 26.5091C269.812 26.5271 269.812 26.5271 270.58 26.5455C272.189 26.4376 273.269 26.1473 274.695 25.4072C275.898 23.9426 275.898 23.9426 275.672 22.2637C275.383 20.7287 275.383 20.7287 274.365 20.1309C272.736 19.5665 271.334 19.6045 269.613 19.6387C268.538 19.6601 267.463 19.6815 266.355 19.7035ZM266.355 28.5183C266.355 30.7428 266.355 32.9672 266.355 35.2591C267.528 35.3012 268.701 35.3313 269.874 35.3563C270.527 35.3743 271.18 35.3924 271.853 35.411C273.738 35.2519 274.465 35.0724 275.738 33.7035C276.085 31.8887 276.085 31.8887 275.738 30.0739C274.465 28.705 273.738 28.5255 271.853 28.3664C271.2 28.3845 270.547 28.4025 269.874 28.4211C269.215 28.4352 268.557 28.4492 267.878 28.4636C267.124 28.4907 267.124 28.4907 266.355 28.5183Z" fill="#7A8582"/>
<path d="M137.086 18.537C139.481 21.2168 139.346 24.0358 139.334 27.4491C139.342 27.9059 139.351 28.3628 139.359 28.8335C139.361 31.5411 139.136 33.4427 137.607 35.7778C135.751 37.4893 134.315 37.9945 131.841 38.0787C129.191 37.9678 127.746 37.2215 125.749 35.5185C123.947 33.3668 124.439 30.2165 124.413 27.5787C124.398 27.0677 124.383 26.5567 124.368 26.0302C124.34 22.8843 124.518 21.0404 126.661 18.6667C130.009 16.602 133.65 16.5433 137.086 18.537ZM127.183 22.2963C126.005 25.7224 126.117 30.4634 127.704 33.7037C128.665 35.1633 129.287 35.2644 131.027 35.713C133.142 35.7855 133.892 35.5196 135.522 34.2222C136.996 32.0228 136.776 30.1337 136.793 27.5463C136.81 27.0804 136.827 26.6145 136.845 26.1345C136.864 23.7674 136.824 22.6462 135.378 20.6921C133.647 19.4865 132.838 19.318 130.797 19.4485C129.049 19.8911 128.235 20.8999 127.183 22.2963Z" fill="#7A8582"/>
<path d="M188.168 18.5696C190.676 21.2983 190.427 23.9143 190.416 27.4492C190.424 27.9622 190.433 28.4752 190.441 29.0038C190.443 32.2934 190.095 34.1462 187.907 36.6853C186.097 38.1858 183.892 38.025 181.656 37.9958C179.699 37.7805 178.653 37.0971 177.222 35.7779C175.435 33.0382 175.421 30.6381 175.463 27.4816C175.457 27.0271 175.451 26.5726 175.444 26.1043C175.457 23.4093 175.718 21.5159 177.222 19.1853C180.227 16.3887 184.754 16.5178 188.168 18.5696ZM178.264 22.2964C177.9 24.0355 177.923 25.7115 177.971 27.4816C177.965 27.9428 177.96 28.404 177.954 28.8792C177.978 31.0613 178.075 32.3508 179.215 34.2548C180.804 35.6625 181.888 35.7779 183.998 35.7779C185.754 35.3154 185.754 35.3154 187.125 34.2224C188.116 31.9314 188.309 29.9281 188.298 27.4492C188.301 26.8336 188.304 26.218 188.306 25.5838C188.137 23.4709 187.71 22.0256 186.421 20.3358C185.323 19.5285 184.639 19.463 183.281 19.4446C182.89 19.4285 182.499 19.4125 182.096 19.396C180.146 19.8858 179.441 20.684 178.264 22.2964Z" fill="#7A8582"/>
<path d="M224.655 17.6299C225.515 17.6299 226.375 17.6299 227.261 17.6299C227.261 19.6832 227.261 21.7365 227.261 23.8521C228.122 23.5099 228.982 23.1677 229.868 22.8151C231.075 22.7178 231.075 22.7178 232.246 22.8151C232.634 22.8365 233.021 22.8578 233.421 22.8799C234.794 23.4274 235.489 24.1436 236.252 25.4001C237.087 27.6249 236.853 30.0036 236.774 32.3428C236.765 32.8729 236.755 33.4029 236.746 33.949C236.721 35.2506 236.687 36.5511 236.644 37.8521C235.784 37.8521 234.924 37.8521 234.038 37.8521C234.027 37.5277 234.017 37.2033 234.006 36.869C233.957 35.4033 233.9 33.9379 233.842 32.4725C233.826 31.9618 233.81 31.4512 233.793 30.925C233.773 30.4371 233.753 29.9492 233.732 29.4464C233.708 28.7703 233.708 28.7703 233.683 28.0805C233.614 26.8545 233.614 26.8545 232.474 25.9262C231.059 25.7564 229.736 25.8583 228.304 25.9262C227.444 26.7821 227.665 27.8122 227.618 28.9907C227.596 29.5037 227.574 30.0167 227.552 30.5452C227.531 31.085 227.511 31.6247 227.49 32.1808C227.456 32.9934 227.456 32.9934 227.421 33.8224C227.366 35.1656 227.313 36.5088 227.261 37.8521C226.401 37.8521 225.541 37.8521 224.655 37.8521C224.655 31.1788 224.655 24.5054 224.655 17.6299Z" fill="#7A8582"/>
<path d="M249.545 23.4308C250.951 24.5574 251.588 25.294 252.281 26.9632C252.281 28.5032 252.281 30.0432 252.281 31.6299C249.013 31.6299 245.745 31.6299 242.378 31.6299C242.894 32.6565 243.41 33.6832 243.941 34.741C246.556 35.5262 248.212 35.1499 250.717 34.2225C251.062 34.3936 251.406 34.5647 251.76 34.741C251.76 35.2543 251.76 35.7676 251.76 36.2965C249.265 37.7857 247.308 38.2694 244.463 37.8521C241.711 36.8381 241.711 36.8381 240.743 35.4418C239.681 32.5637 239.548 28.108 240.822 25.2618C243.073 22.5104 246.337 22.0531 249.545 23.4308ZM243.485 26.0558C242.749 27.0885 242.749 27.0885 242.378 29.0373C244.958 29.0373 247.538 29.0373 250.196 29.0373C249.852 28.0106 249.508 26.9839 249.154 25.9262C247.337 25.0227 245.2 24.9186 243.485 26.0558Z" fill="#7A8582"/>
<path d="M291.016 23.4952C292.417 24.3702 292.417 24.3702 293.459 25.9257C293.603 27.3991 293.676 28.7944 293.687 30.2683C293.705 30.66 293.722 31.0517 293.739 31.4553C293.761 33.6779 293.662 34.4903 292.207 36.284C289.868 38.0969 288.019 38.1312 285.12 37.8517C283.632 37.2222 282.834 36.7736 281.939 35.4414C280.842 32.5846 280.731 28.0982 282 25.2614C284.382 22.3492 287.663 22.1734 291.016 23.4952ZM284.663 26.0878C283.355 28.0398 283.401 29.8724 283.556 32.148C284.012 33.9209 284.012 33.9209 285.12 35.2591C286.866 35.9949 286.866 35.9949 288.768 35.7776C290.417 34.9159 290.417 34.9159 291.374 33.185C291.78 30.5797 291.766 28.2055 290.332 25.9257C288.508 25.0185 286.361 24.9056 284.663 26.0878Z" fill="#7A8582"/>
<path d="M142.82 23.333C143.681 23.333 144.541 23.333 145.427 23.333C145.432 23.6206 145.436 23.9082 145.441 24.2045C145.47 25.5132 145.513 26.821 145.557 28.1293C145.564 28.5818 145.572 29.0343 145.579 29.5005C145.671 32.1956 145.671 32.1956 146.913 34.5399C148.039 35.4098 148.039 35.4098 149.662 35.2265C151.312 34.8613 151.312 34.8613 152.203 33.1849C152.393 32.0838 152.393 32.0838 152.419 30.8779C152.439 30.4384 152.459 29.9989 152.48 29.5461C152.496 29.0893 152.512 28.6324 152.529 28.1617C152.549 27.6988 152.569 27.236 152.59 26.7591C152.639 25.6172 152.683 24.4752 152.724 23.333C153.412 23.333 154.1 23.333 154.809 23.333C154.809 28.1241 154.809 32.9152 154.809 37.8515C154.121 37.8515 153.433 37.8515 152.724 37.8515C152.552 37.5093 152.38 37.1671 152.203 36.8145C151.687 37.1567 151.171 37.4989 150.639 37.8515C149.041 38.1344 147.547 38.1278 145.948 37.8515C144.088 36.4639 143.228 35.4318 142.82 33.1849C142.78 32.3998 142.764 31.6133 142.77 30.8272C142.771 30.3894 142.773 29.9516 142.775 29.5005C142.779 29.048 142.783 28.5955 142.788 28.1293C142.79 27.6688 142.793 27.2082 142.795 26.7338C142.801 25.6001 142.81 24.4666 142.82 23.333Z" fill="#7A8582"/>
<path d="M295.544 23.3331C296.912 23.0739 296.912 23.0739 298.671 23.3331C299.626 24.3491 300.365 25.4066 301.123 26.5739C301.346 26.8733 301.569 27.1727 301.799 27.4813C302.143 27.4813 302.487 27.4813 302.841 27.4813C303.642 26.4352 304.349 25.3438 305.067 24.2405C305.969 23.3331 305.969 23.3331 307.376 23.2035C307.969 23.2677 307.969 23.2677 308.575 23.3331C307.27 25.651 305.911 27.8802 304.405 30.0739C305.208 31.8047 306.221 33.2909 307.337 34.8377C309.096 37.277 309.096 37.277 309.096 37.8516C307.917 37.9975 307.917 37.9975 306.49 37.8516C305.437 36.8308 305.437 36.8308 304.503 35.5183C304.188 35.0852 303.873 34.6521 303.548 34.2058C303.315 33.8689 303.082 33.5321 302.841 33.185C300.716 33.8898 300.213 35.1389 299.034 36.9625C298.15 37.8516 298.15 37.8516 296.745 37.9792C296.349 37.9371 295.952 37.895 295.544 37.8516C296.247 35.8623 297.148 34.4026 298.476 32.7637C298.97 32.1491 298.97 32.1491 299.474 31.5221C299.725 31.2153 299.976 30.9085 300.235 30.5924C299.461 28.8936 298.475 27.5394 297.303 26.0877C295.544 23.9056 295.544 23.9056 295.544 23.3331Z" fill="#7A8582"/>
<path d="M208.497 17.6289C213.313 17.6289 218.13 17.6289 223.092 17.6289C223.092 18.3134 223.092 18.9978 223.092 19.703C221.028 19.703 218.964 19.703 216.837 19.703C216.837 25.6919 216.837 31.6808 216.837 37.8511C216.149 37.8511 215.461 37.8511 214.752 37.8511C214.752 31.8622 214.752 25.8734 214.752 19.703C212.688 19.703 210.624 19.703 208.497 19.703C208.497 19.0185 208.497 18.3341 208.497 17.6289Z" fill="#7A8582"/>
<path d="M197.115 17.5283C197.75 17.5464 197.75 17.5464 198.398 17.5648C199.037 17.5788 199.037 17.5788 199.689 17.5931C200.179 17.6112 200.179 17.6112 200.678 17.6296C200.678 18.314 200.678 18.9985 200.678 19.7037C199.646 19.8748 198.614 20.0459 197.551 20.2222C197.379 21.2489 197.207 22.2755 197.03 23.3333C198.234 23.3333 199.438 23.3333 200.678 23.3333C200.678 24.0177 200.678 24.7022 200.678 25.4074C199.474 25.4074 198.27 25.4074 197.03 25.4074C197.03 29.514 197.03 33.6207 197.03 37.8518C196.17 37.8518 195.309 37.8518 194.423 37.8518C194.423 33.7451 194.423 29.6385 194.423 25.4074C194.079 25.4074 193.735 25.4074 193.381 25.4074C193.381 24.7229 193.381 24.0385 193.381 23.3333C193.725 23.3333 194.069 23.3333 194.423 23.3333C194.449 23.0085 194.474 22.6836 194.501 22.3489C194.559 21.7133 194.559 21.7133 194.619 21.0648C194.655 20.6437 194.691 20.2226 194.729 19.7887C195.03 18.225 195.501 17.6733 197.115 17.5283Z" fill="#7A8582"/>
<path d="M159.5 19.1855C160.188 19.1855 160.876 19.1855 161.585 19.1855C161.585 20.5544 161.585 21.9233 161.585 23.3337C162.617 23.3337 163.649 23.3337 164.713 23.3337C164.713 24.0181 164.713 24.7026 164.713 25.4078C163.681 25.4078 162.649 25.4078 161.585 25.4078C161.757 28.4878 161.929 31.5678 162.106 34.7411C162.967 34.9122 163.827 35.0833 164.713 35.2596C164.713 36.1152 164.713 36.9707 164.713 37.8522C161.928 38.0411 161.928 38.0411 160.45 37.2267C159.5 36.2967 159.5 36.2967 159.264 35.1205C159.274 34.6725 159.285 34.2244 159.297 33.7628C159.303 33.2765 159.31 32.7903 159.317 32.2893C159.334 31.783 159.352 31.2766 159.37 30.755C159.379 30.2427 159.389 29.7303 159.398 29.2025C159.423 27.9371 159.457 26.6727 159.5 25.4078C158.984 25.4078 158.468 25.4078 157.937 25.4078C157.937 24.7233 157.937 24.0389 157.937 23.3337C158.453 23.3337 158.969 23.3337 159.5 23.3337C159.5 21.9648 159.5 20.5959 159.5 19.1855Z" fill="#7A8582"/>
<path d="M200.157 45.1113C200.199 46.6348 200.23 48.1571 200.254 49.6808C200.268 50.1129 200.281 50.545 200.294 50.9903C200.302 51.6144 200.302 51.6144 200.309 52.2511C200.322 52.8254 200.322 52.8254 200.334 53.4113C200.106 54.7398 199.644 55.1768 198.593 56.0002C197.043 56.5142 196.308 56.6484 194.781 56.0326C194.346 55.7599 194.346 55.7599 193.902 55.4817C193.902 54.9684 193.902 54.4551 193.902 53.9262C195.106 54.0973 196.31 54.2684 197.55 54.4447C197.895 53.9313 198.239 53.418 198.593 52.8891C198.12 53.0175 197.647 53.1458 197.16 53.278C195.466 53.4076 195.466 53.4076 194.228 52.6947C192.987 50.7013 192.981 48.9501 193.381 46.6669C194.966 43.7865 197.352 44.6031 200.157 45.1113ZM195.987 46.1484C194.746 47.156 194.746 47.156 194.814 49.0002C194.746 50.8444 194.746 50.8444 195.987 51.8521C197.437 51.6419 197.437 51.6419 198.593 50.8151C198.723 49.0219 198.723 49.0219 198.593 47.1854C198.249 46.8432 197.905 46.501 197.55 46.1484C197.034 46.1484 196.518 46.1484 195.987 46.1484Z" fill="#7A8582"/>
<path d="M218.759 44.7867C219.18 44.8442 219.602 44.9016 220.036 44.9609C220.517 45.0351 220.517 45.0351 221.007 45.1107C221.037 46.7311 221.056 48.3513 221.072 49.9719C221.081 50.4331 221.09 50.8943 221.099 51.3694C221.102 51.8106 221.105 52.2517 221.109 52.7062C221.114 53.1135 221.12 53.5208 221.125 53.9405C221.007 54.9626 221.007 54.9626 219.965 55.9996C217.874 56.6741 216.71 56.4271 214.752 55.4811C215.01 54.7111 215.01 54.7111 215.273 53.9256C216.649 54.0967 218.025 54.2678 219.443 54.4441C219.443 53.9307 219.443 53.4174 219.443 52.8885C219.045 52.9848 218.648 53.081 218.238 53.1802C216.837 53.407 216.837 53.407 215.273 52.8885C214.564 51.478 214.645 50.3135 214.622 48.7404C214.608 48.1843 214.595 47.6282 214.581 47.0552C214.637 46.5846 214.694 46.1141 214.752 45.6293C216.5 44.4701 216.789 44.5026 218.759 44.7867ZM216.837 46.1478C215.499 48.1442 215.882 49.0441 216.316 51.333C217.176 51.5041 218.036 51.6752 218.922 51.8515C220.26 49.855 219.877 48.9552 219.443 46.6663C218.583 46.4952 217.723 46.3241 216.837 46.1478Z" fill="#7A8582"/>
<path d="M137.087 42C137.603 42 138.119 42 138.651 42C138.651 45.5933 138.651 49.1867 138.651 52.8889C133.959 53.4074 133.959 53.4074 132.638 52.8403C131.61 51.5093 131.613 50.6662 131.646 49C131.647 48.5027 131.648 48.0054 131.649 47.4931C131.875 46.1481 131.875 46.1481 132.55 45.182C133.438 44.5926 133.438 44.5926 135.36 44.7546C135.93 44.8723 136.5 44.9899 137.087 45.1111C137.087 44.0844 137.087 43.0578 137.087 42ZM133.959 46.1481C133.317 46.671 133.317 46.671 133.387 47.7381C133.393 48.1652 133.399 48.5924 133.406 49.0324C133.41 49.4609 133.415 49.8893 133.42 50.3307C133.426 50.6616 133.432 50.9924 133.438 51.3333C134.688 51.6857 134.688 51.6857 136.044 51.8519C137.285 50.8442 137.285 50.8442 137.217 49C137.285 47.1558 137.285 47.1558 136.044 46.1481C135.356 46.1481 134.668 46.1481 133.959 46.1481Z" fill="#7A8582"/>
<path d="M228.825 45.1116C230.019 46.8928 229.961 47.6966 229.868 49.7783C228.148 49.7783 226.428 49.7783 224.655 49.7783C225.171 50.5483 225.171 50.5483 225.698 51.3338C227.504 51.0771 227.504 51.0771 229.346 50.8153C229.518 51.3286 229.691 51.842 229.868 52.3709C227.761 53.4185 226.405 53.5421 224.134 52.8894C223.049 51.2706 222.949 50.8502 222.961 49.0005C222.957 48.3989 222.957 48.3989 222.953 47.7852C223.092 46.6671 223.092 46.6671 224.134 45.1116C225.977 44.5006 226.959 44.6377 228.825 45.1116ZM225.698 46.1486C225.354 46.8331 225.01 47.5175 224.655 48.2227C225.859 48.2227 227.063 48.2227 228.304 48.2227C227.96 47.5383 227.616 46.8538 227.262 46.1486C226.745 46.1486 226.229 46.1486 225.698 46.1486Z" fill="#7A8582"/>
<path d="M153.766 45.1114C154.809 46.1484 154.809 46.1484 154.874 48.028C154.853 48.6055 154.831 49.183 154.809 49.778C153.089 49.778 151.369 49.778 149.596 49.778C150.113 50.548 150.113 50.548 150.639 51.3336C152.445 51.0769 152.445 51.0769 154.288 50.8151C154.46 51.3284 154.632 51.8417 154.809 52.3706C153.45 53.2542 152.776 53.4108 151.128 53.3104C149.515 52.8666 149.031 52.6205 148.033 51.3336C147.843 50.2155 147.843 50.2155 147.87 49.0003C147.872 48.5992 147.874 48.1982 147.876 47.785C148.033 46.6669 148.033 46.6669 149.075 45.1114C150.91 44.5029 151.903 44.6775 153.766 45.1114ZM150.639 46.1484C150.295 46.8328 149.951 47.5173 149.596 48.2225C150.801 48.2225 152.005 48.2225 153.245 48.2225C153.073 47.538 152.901 46.8536 152.724 46.1484C152.036 46.1484 151.348 46.1484 150.639 46.1484Z" fill="#7A8582"/>
<path d="M129.268 45.1115C130.619 47.6318 130.407 50.1167 130.31 52.8893C129.573 53.0053 128.834 53.1114 128.095 53.2134C127.478 53.3036 127.478 53.3036 126.849 53.3957C125.451 53.4095 124.719 53.0791 123.534 52.3708C123.512 51.1611 123.513 49.9509 123.534 48.7412C124.601 47.6798 126.82 47.8595 128.225 47.7041C128.053 47.3619 127.881 47.0197 127.704 46.6671C126.5 46.6671 125.296 46.6671 124.055 46.6671C124.055 46.1538 124.055 45.6404 124.055 45.1115C125.981 44.473 127.29 44.7774 129.268 45.1115ZM125.619 49.2597C125.103 50.0297 125.103 50.0297 124.576 50.8152C124.92 51.1575 125.264 51.4997 125.619 51.8523C127.234 51.6853 127.234 51.6853 128.746 51.3338C128.746 50.6493 128.746 49.9649 128.746 49.2597C127.226 49.1299 127.226 49.1299 125.619 49.2597Z" fill="#7A8582"/>
<path d="M211.624 45.1114C212.667 46.1484 212.667 46.1484 212.769 47.7242C212.757 48.3378 212.745 48.9514 212.732 49.5836C212.723 50.1999 212.713 50.8161 212.704 51.4511C212.691 51.9256 212.679 52.4002 212.667 52.8892C208.48 53.6279 208.48 53.6279 206.64 52.8243C205.891 51.8521 205.891 51.8521 205.695 50.5234C205.891 49.2595 205.891 49.2595 206.933 48.2225C208.335 48.0825 209.691 48.1772 211.103 48.2225C210.931 47.7092 210.759 47.1958 210.582 46.6669C209.206 46.6669 207.83 46.6669 206.412 46.6669C206.584 46.1536 206.756 45.6403 206.933 45.1114C208.559 44.3028 209.885 44.7715 211.624 45.1114ZM207.455 49.778C207.627 50.4625 207.799 51.1469 207.976 51.8521C208.836 51.8521 209.696 51.8521 210.582 51.8521C210.754 50.9966 210.926 50.141 211.103 49.2595C209.212 49.181 209.212 49.181 207.455 49.778Z" fill="#7A8582"/>
<path d="M178.786 45.1112C178.786 45.6245 178.786 46.1379 178.786 46.6667C177.41 46.6667 176.034 46.6667 174.616 46.6667C174.616 47.009 174.616 47.3512 174.616 47.7038C174.911 47.7726 175.206 47.8415 175.51 47.9124C175.892 48.004 176.274 48.0955 176.668 48.1899C177.24 48.3252 177.24 48.3252 177.823 48.4633C178.786 48.7408 178.786 48.7408 179.307 49.2593C179.503 50.4908 179.503 50.4908 179.307 51.8519C178.232 52.8241 178.232 52.8241 176.701 53.4075C174.961 53.2901 173.574 53.1487 172.01 52.3704C172.182 51.8571 172.354 51.3438 172.531 50.8149C174.079 50.986 175.627 51.1571 177.222 51.3334C177.394 50.8201 177.566 50.3067 177.743 49.7779C177.411 49.7464 177.078 49.715 176.736 49.6827C176.305 49.6392 175.874 49.5958 175.43 49.551C175.001 49.5089 174.572 49.4668 174.129 49.4234C173.052 49.2593 173.052 49.2593 172.531 48.7408C172.51 47.704 172.509 46.6665 172.531 45.6297C174.614 44.1622 176.402 44.716 178.786 45.1112Z" fill="#7A8582"/>
<path d="M247.068 45.1113C247.756 45.1113 248.444 45.1113 249.153 45.1113C249.841 46.6513 250.529 48.1913 251.238 49.778C251.754 48.238 252.27 46.698 252.802 45.1113C253.49 45.2824 254.178 45.4536 254.887 45.6298C254.32 47.2533 253.741 48.8724 253.16 50.491C252.999 50.9522 252.839 51.4134 252.673 51.8885C252.513 52.3297 252.354 52.7708 252.189 53.2253C252.044 53.6326 251.9 54.0399 251.751 54.4596C251.238 55.4817 251.238 55.4817 249.675 56.5187C249.159 56.5187 248.643 56.5187 248.111 56.5187C248.111 56.0054 248.111 55.4921 248.111 54.9632C248.627 54.7921 249.143 54.621 249.675 54.4447C249.377 51.1158 248.281 48.2142 247.068 45.1113Z" fill="#7A8582"/>
<path d="M237.687 45.1105C238.834 46.769 238.841 48.1923 238.794 50.1661C238.785 50.6768 238.775 51.1874 238.766 51.7136C238.748 52.2951 238.748 52.2951 238.729 52.8883C238.213 52.8883 237.697 52.8883 237.165 52.8883C237.134 52.5261 237.102 52.1638 237.07 51.7905C237.026 51.3186 236.982 50.8467 236.937 50.3605C236.895 49.8913 236.853 49.4221 236.809 48.9387C236.712 47.6974 236.712 47.6974 236.123 46.6661C235.435 46.6661 234.747 46.6661 234.038 46.6661C233.404 47.9281 233.35 48.9571 233.223 50.3605C233.158 51.0684 233.158 51.0684 233.091 51.7905C233.059 52.1528 233.028 52.5151 232.995 52.8883C232.479 52.8883 231.963 52.8883 231.432 52.8883C231.432 50.3217 231.432 47.755 231.432 45.1105C235.431 44.4475 235.431 44.4475 237.687 45.1105Z" fill="#7A8582"/>
<path d="M190.774 45.1115C191.922 46.77 191.929 48.1933 191.882 50.1671C191.873 50.6777 191.863 51.1884 191.854 51.7145C191.835 52.296 191.835 52.296 191.817 52.8893C191.301 52.8893 190.785 52.8893 190.253 52.8893C190.222 52.527 190.19 52.1648 190.157 51.7915C190.114 51.3196 190.07 50.8477 190.025 50.3615C189.983 49.8923 189.94 49.4231 189.897 48.9397C189.8 47.6984 189.8 47.6984 189.211 46.6671C188.523 46.6671 187.835 46.6671 187.126 46.6671C186.491 47.9291 186.438 48.9581 186.311 50.3615C186.246 51.0694 186.246 51.0694 186.179 51.7915C186.147 52.1538 186.116 52.5161 186.083 52.8893C185.567 52.8893 185.051 52.8893 184.52 52.8893C184.52 50.3226 184.52 47.756 184.52 45.1115C188.519 44.4485 188.519 44.4485 190.774 45.1115Z" fill="#7A8582"/>
<path d="M246.547 45.1115C246.547 45.796 246.547 46.4804 246.547 47.1856C245.956 47.0894 245.364 46.9931 244.755 46.8939C244.142 46.8191 243.53 46.7442 242.898 46.6671C242.16 47.2811 242.16 47.2811 242.344 49.0328C242.355 49.621 242.366 50.2092 242.377 50.8152C244.021 51.1786 245.362 51.3338 247.068 51.3338C246.896 51.8471 246.724 52.3604 246.547 52.8893C243.236 53.5227 243.236 53.5227 241.66 52.9865C240.813 52.3708 240.813 52.3708 240.292 51.3338C240.204 50.2663 240.204 50.2663 240.194 49.0328C240.187 48.6271 240.179 48.2214 240.172 47.8034C240.292 46.6671 240.292 46.6671 241.334 45.1115C243.26 44.473 244.569 44.7774 246.547 45.1115Z" fill="#7A8582"/>
<path d="M139.693 45.1113C140.679 45.2389 140.679 45.2389 141.778 45.6298C142.534 46.9565 142.875 48.3145 143.342 49.778C144.03 48.238 144.718 46.698 145.427 45.1113C146.115 45.2824 146.803 45.4536 147.512 45.6298C146.48 48.0254 145.448 50.421 144.385 52.8891C143.696 52.718 143.008 52.5469 142.3 52.3706C141.712 51.1273 141.272 50.008 140.866 48.7086C140.694 48.1927 140.694 48.1927 140.518 47.6664C140.235 46.8172 139.963 45.9646 139.693 45.1113Z" fill="#7A8582"/>
<path d="M163.67 42.5186C164.186 42.5186 164.702 42.5186 165.234 42.5186C165.234 43.3741 165.234 44.2297 165.234 45.1111C165.75 45.1111 166.266 45.1111 166.797 45.1111C166.797 45.4534 166.797 45.7956 166.797 46.1482C166.281 46.1482 165.765 46.1482 165.234 46.1482C165.293 47.002 165.359 47.8553 165.429 48.7084C165.465 49.1836 165.502 49.6588 165.539 50.1485C165.61 50.5395 165.682 50.9305 165.755 51.3334C166.099 51.5045 166.443 51.6756 166.797 51.8519C166.797 52.1941 166.797 52.5363 166.797 52.8889C165.929 52.9111 165.06 52.91 164.191 52.8889C163.196 51.8992 163.441 50.1958 163.344 48.8704C163.295 48.2314 163.245 47.5924 163.194 46.9341C163.154 45.3379 163.275 44.0561 163.67 42.5186Z" fill="#7A8582"/>
<path d="M162.627 45.1111C162.455 45.6244 162.283 46.1378 162.106 46.6666C161.074 46.6666 160.042 46.6666 158.979 46.6666C158.807 48.72 158.635 50.7733 158.457 52.8889C157.941 52.8889 157.425 52.8889 156.894 52.8889C156.894 50.3222 156.894 47.7555 156.894 45.1111C159.235 44.6453 160.377 44.6427 162.627 45.1111Z" fill="#7A8582"/>
<path d="M180.871 45.1113C181.387 45.1113 181.903 45.1113 182.435 45.1113C182.435 47.678 182.435 50.2447 182.435 52.8891C181.919 52.8891 181.403 52.8891 180.871 52.8891C180.871 50.3224 180.871 47.7558 180.871 45.1113Z" fill="#7A8582"/>
<path d="M168.882 45.1113C169.398 45.1113 169.914 45.1113 170.446 45.1113C170.446 47.678 170.446 50.2447 170.446 52.8891C169.93 52.8891 169.414 52.8891 168.882 52.8891C168.882 50.3224 168.882 47.7558 168.882 45.1113Z" fill="#7A8582"/>
<path d="M180.871 42C181.387 42 181.903 42 182.435 42C182.435 42.3422 182.435 42.6844 182.435 43.037C181.919 43.037 181.403 43.037 180.871 43.037C180.871 42.6948 180.871 42.3526 180.871 42Z" fill="#7A8582"/>
<path d="M168.882 42C169.398 42 169.914 42 170.446 42C170.446 42.3422 170.446 42.6844 170.446 43.037C169.93 43.037 169.414 43.037 168.882 43.037C168.882 42.6948 168.882 42.3526 168.882 42Z" fill="#7A8582"/>
</svg>
