<svg width="276" height="70" viewBox="0 0 276 70" fill="none" xmlns="http://www.w3.org/2000/svg">
<g clip-path="url(#clip0_2001_1566)">
<path d="M0 6.76367C18.8041 6.76367 37.6082 6.76367 56.9822 6.76367C56.9892 15.5796 56.9962 24.3956 57.0034 33.4786C57.0065 36.2611 57.0096 39.0435 57.0127 41.9103C57.0143 45.3111 57.0143 45.3111 57.0146 46.9038C57.0149 48.0148 57.0161 49.1258 57.018 50.2369C57.0203 51.6556 57.021 53.0743 57.0205 54.493C57.0206 55.0128 57.0213 55.5325 57.0226 56.0522C57.0243 56.7565 57.0239 57.4609 57.023 58.1652C57.0234 58.7562 57.0234 58.7562 57.0239 59.3592C56.9777 60.6572 56.8046 61.9483 56.643 63.2371C37.9508 63.2371 19.2586 63.2371 0 63.2371C0 44.6009 0 25.9646 0 6.76367Z" fill="#7A8582"/>
<path d="M72.1533 39.9033C86.4937 39.9033 86.4937 39.9033 89.1123 42.2705C92.0101 45.886 92.199 49.8012 91.9317 54.2812C91.5841 57.0348 90.0703 59.4218 88.0524 61.2922C83.6405 64.6524 77.1964 63.2367 72.1533 63.2367C72.1533 55.5367 72.1533 47.8367 72.1533 39.9033ZM77.241 44.2995C77.241 49.098 77.241 53.8966 77.241 58.8405C81.715 59.2294 81.715 59.2294 85.0421 57.4879C86.9164 54.5882 87.1276 51.3183 86.4201 48.0193C86.2403 47.2757 86.0641 46.6753 85.7205 45.9903C85.4966 45.9903 85.2728 45.9903 85.0421 45.9903C85.0421 45.7671 85.0421 45.5439 85.0421 45.3139C84.7064 45.3139 84.3706 45.3139 84.0246 45.3139C83.9127 45.0908 83.8007 44.8676 83.6854 44.6376C81.2693 44.179 81.2693 44.179 77.241 44.2995Z" fill="#7A8582"/>
<path d="M82.3069 7.65022C82.5755 7.6539 82.8441 7.65757 83.1209 7.66136C86.1317 7.74332 88.3039 8.31328 90.5174 10.4454C93.5787 13.9151 93.9433 18.042 93.8297 22.5004C93.5346 25.0597 92.4513 26.7954 90.8076 28.7432C90.5488 29.0571 90.2899 29.3709 90.0232 29.6943C87.4069 31.8175 84.6859 32.6651 81.3106 32.463C77.5178 31.7051 75.21 30.4239 73.006 27.2664C70.934 23.6779 70.8375 19.2949 71.7764 15.3699C72.6347 12.7065 74.1013 10.2554 76.5621 8.79152C78.4817 7.87495 80.192 7.61089 82.3069 7.65022ZM77.834 14.3501C76.6372 16.0972 76.4407 17.6311 76.4561 19.7185C76.4572 19.9741 76.4584 20.2298 76.4596 20.4932C76.4953 22.3125 76.6705 23.7502 77.5796 25.3616C77.9154 25.4732 78.2512 25.5848 78.5971 25.6997C78.744 26.0241 78.744 26.0241 78.8939 26.3549C79.2272 27.1031 79.2272 27.1031 79.975 27.4751C81.7957 27.9386 83.5718 28.0697 85.2959 27.2215C86.8808 26.1705 87.8691 24.7031 88.273 22.8504C88.3706 21.9934 88.4118 21.1512 88.4333 20.2891C88.4543 20.0302 88.4753 19.7712 88.4969 19.5045C88.609 17.5004 88.1596 15.9008 87.0766 14.2022C86.0864 13.1444 85.0303 12.2395 83.5523 12.0926C80.9555 12.0254 79.6411 12.3982 77.834 14.3501Z" fill="#7A8582"/>
<path d="M112.522 45.9429C113.139 46.3557 113.686 46.8193 114.212 47.3431C114.323 46.8968 114.435 46.4504 114.551 45.9905C116.118 45.9905 117.685 45.9905 119.299 45.9905C119.299 52.3514 119.299 58.7122 119.299 65.2658C119.075 65.2658 118.851 65.2658 118.621 65.2658C118.6 65.51 118.579 65.7541 118.557 66.0056C118.081 67.6487 116.858 68.5553 115.441 69.4295C112.633 70.7337 108.932 70.298 106.082 69.2987C105.142 68.8718 104.415 68.3723 103.697 67.633C103.697 67.4098 103.697 67.1866 103.697 66.9567C103.473 66.8451 103.249 66.7335 103.019 66.6185C103.019 65.9489 103.019 65.2794 103.019 64.5895C103.839 64.5529 104.657 64.5261 105.478 64.505C105.825 64.488 105.825 64.488 106.179 64.4706C107.363 64.4477 107.946 64.4387 108.827 65.2658C109.037 65.489 109.247 65.7122 109.463 65.9422C110.418 66.1049 110.418 66.1049 111.413 66.0267C111.914 66.0084 111.914 66.0084 112.426 65.9897C112.679 65.974 112.933 65.9583 113.194 65.9422C113.194 65.719 113.194 65.4958 113.194 65.2658C113.418 65.2658 113.642 65.2658 113.872 65.2658C113.984 64.0383 114.096 62.8108 114.212 61.546C113.946 61.818 113.68 62.0901 113.406 62.3703C112.012 63.5272 110.555 63.6362 108.785 63.575C107.937 63.4219 107.223 63.198 106.41 62.8987C106.41 62.6755 106.41 62.4523 106.41 62.2224C106.214 62.1456 106.019 62.0689 105.817 61.9899C103.792 60.8121 102.987 58.6194 102.34 56.4736C102.018 53.6251 102.648 50.5187 104.333 48.1674C106.287 45.8377 109.592 44.6998 112.522 45.9429ZM108.445 50.7248C107.24 52.4235 107.189 54.1277 107.428 56.1354C107.857 57.3724 108.22 57.9707 109.209 58.8196C110.481 59.3099 111.208 59.2131 112.516 58.8407C113.396 58.1348 114.022 57.571 114.487 56.537C114.69 54.1727 114.691 52.3485 113.194 50.3866C111.445 49.3282 110.054 49.4584 108.445 50.7248Z" fill="#7A8582"/>
<path d="M155.727 14.8558C156.27 15.2177 156.27 15.2177 156.609 15.8941C156.721 15.3361 156.833 14.7781 156.948 14.2032C158.403 14.2032 159.858 14.2032 161.358 14.2032C161.388 16.6697 161.413 19.1361 161.428 21.6027C161.435 22.7483 161.444 23.8937 161.46 25.0392C161.476 26.3588 161.484 27.6782 161.49 28.9979C161.497 29.4056 161.504 29.8133 161.511 30.2333C161.512 32.6094 161.31 34.1759 160.001 36.1839C157.808 38.295 154.769 38.4375 151.86 38.5511C149.689 38.3625 147.618 37.5013 146.137 35.888C145.37 34.7632 145.341 34.4358 145.416 33.1404C146.25 33.1131 147.083 33.093 147.918 33.077C148.154 33.0685 148.391 33.06 148.636 33.0513C149.325 33.0414 149.325 33.0414 150.504 33.1404C150.728 33.4752 150.951 33.81 151.182 34.1549C153.24 34.5793 153.24 34.5793 155.252 34.1549C155.364 33.9318 155.476 33.7086 155.591 33.4786C155.815 33.4786 156.039 33.4786 156.27 33.4786C156.382 32.2511 156.494 31.0235 156.609 29.7588C156.406 29.975 156.203 30.1912 155.994 30.414C154.535 31.7859 152.824 31.5413 150.924 31.5223C149.141 31.4044 148.066 30.9783 146.709 29.7799C144.867 26.6758 144.262 23.4346 144.971 19.9098C145.602 17.72 146.849 15.7506 148.808 14.5414C151.399 13.5846 153.305 13.5972 155.727 14.8558ZM150.758 18.9798C150.099 20.0593 149.924 20.7266 149.825 21.981C149.808 22.1985 149.79 22.4161 149.772 22.6402C149.698 24.2529 149.945 25.3233 150.843 26.7153C152.094 27.547 153.121 27.626 154.574 27.3917C155.742 26.6732 156.174 26.3269 156.609 25.0245C156.902 22.0967 156.902 22.0967 156.058 19.3603C155.078 18.435 154.552 18.3155 153.217 18.2612C152.923 18.2194 152.63 18.1775 152.327 18.1344C151.447 18.1954 151.447 18.1954 150.758 18.9798Z" fill="#7A8582"/>
<path d="M193.678 41.1271C194.807 42.0811 195.822 43.0573 196.632 44.3C196.632 44.6348 196.632 44.9696 196.632 45.3145C196.856 45.4261 197.08 45.5377 197.311 45.6527C197.311 46.4339 197.311 47.215 197.311 48.0198C195.632 48.0198 193.953 48.0198 192.223 48.0198C192.034 47.5944 191.845 47.1689 191.651 46.7306C191.006 45.4695 190.556 44.7912 189.171 44.3C187.6 44.0709 186.449 44.1504 184.994 44.8073C182.957 46.6967 182.537 48.7185 182.396 51.4358C182.376 53.6047 182.681 55.2165 183.744 57.1503C183.744 57.3735 183.744 57.5967 183.744 57.8266C183.953 57.9312 184.163 58.0358 184.38 58.1436C184.846 58.3761 185.312 58.6086 185.779 58.8411C187.292 58.9799 188.703 59.0031 190.146 58.5029C191.199 57.5146 191.639 56.4374 192.223 55.1213C193.902 55.1213 195.581 55.1213 197.311 55.1213C196.9 57.899 195.877 60.6843 193.535 62.4209C192.509 62.9528 191.687 63.2372 190.527 63.2372C190.415 63.4604 190.303 63.6836 190.188 63.9136C186.088 63.8614 182.931 63.6291 179.716 60.8278C178.366 59.3742 177.84 57.6719 177.299 55.7976C177.223 55.5518 177.146 55.3059 177.067 55.0526C176.619 53.4856 176.495 52.0014 176.621 50.387C176.644 50.0762 176.667 49.7654 176.691 49.4452C177.094 46.0271 178.533 43.435 181.2 41.2354C184.648 38.8242 190.158 38.6476 193.678 41.1271Z" fill="#7A8582"/>
<path d="M178.232 15.4291C180.247 17.55 181.09 19.8691 181.051 22.763C181.048 23.0616 181.045 23.3602 181.042 23.6679C181.038 23.8924 181.034 24.1169 181.03 24.3482C179.742 24.7603 178.51 24.7247 177.166 24.7194C176.927 24.7189 176.688 24.7184 176.442 24.7179C175.682 24.716 174.922 24.7118 174.161 24.7075C173.645 24.7058 173.128 24.7042 172.611 24.7028C171.347 24.6991 170.083 24.6933 168.819 24.6863C169.138 26.347 169.138 26.347 170.197 27.5396C171.548 27.7976 172.887 28.0036 174.246 27.7298C174.506 27.5058 174.766 27.2817 175.035 27.0508C176.225 26.1674 176.958 26.238 178.422 26.2926C178.848 26.3048 179.273 26.317 179.711 26.3296C180.035 26.3453 180.358 26.361 180.691 26.3772C180.803 26.7119 180.914 27.0467 181.03 27.3917C180.806 27.3917 180.582 27.3917 180.351 27.3917C180.257 27.7474 180.257 27.7474 180.161 28.1103C179.245 29.9358 177.736 31.0333 175.836 31.7455C173.083 32.527 170.033 32.4389 167.463 31.1115C165.611 29.5369 164.276 27.8627 163.998 25.3878C163.794 21.8964 163.886 19.0142 166.275 16.2745C166.695 15.9188 166.695 15.9188 167.123 15.5559C167.326 15.3676 167.529 15.1793 167.738 14.9853C171.006 13.0303 175.079 13.5715 178.232 15.4291ZM169.158 19.6139C169.047 20.0603 168.935 20.5066 168.819 20.9665C171.17 20.9665 173.52 20.9665 175.942 20.9665C175.758 19.3241 175.758 19.3241 174.925 18.4937C172.691 17.2411 170.7 17.5002 169.158 19.6139Z" fill="#7A8582"/>
<path d="M260.749 46.8344C261.733 47.5852 262.228 48.2626 262.772 49.3719C262.772 49.5951 262.772 49.8183 262.772 50.0483C262.996 50.1598 263.22 50.2714 263.45 50.3864C264.042 52.2545 264.198 53.8453 264.129 55.797C262.941 56.1918 262 56.179 260.747 56.1801C260.518 56.1804 260.288 56.1808 260.052 56.1811C259.567 56.1813 259.082 56.1807 258.598 56.1793C257.856 56.1775 257.115 56.1793 256.374 56.1814C255.903 56.1812 255.431 56.1808 254.96 56.1801C254.531 56.1797 254.103 56.1794 253.661 56.179C252.596 56.1352 252.596 56.1352 251.579 55.797C252.252 57.7442 252.252 57.7442 253.614 59.1787C255.121 59.4695 256.554 59.7389 258.023 59.1787C258.247 58.7323 258.471 58.2859 258.702 57.826C260.269 57.826 261.836 57.826 263.45 57.826C263.618 58.4956 263.618 58.4956 263.789 59.1787C263.565 59.1787 263.342 59.1787 263.111 59.1787C263.017 59.5344 263.017 59.5344 262.92 59.8973C262.005 61.7228 260.496 62.8204 258.596 63.5326C256.071 64.2571 253.698 64.0893 251.24 63.2367C251.24 63.0135 251.24 62.7903 251.24 62.5603C250.995 62.4836 250.75 62.4069 250.498 62.3278C248.681 61.4826 247.81 60.3094 247.042 58.5024C246.036 55.4706 246.445 52.3145 247.749 49.4248C248.735 47.7839 250.363 46.4867 252.166 45.8133C255.133 45.192 258.105 45.2948 260.749 46.8344ZM252.257 50.7246C252.033 51.3941 251.81 52.0637 251.579 52.7536C253.929 52.7536 256.28 52.7536 258.702 52.7536C258.36 51.0506 258.247 50.7601 257.006 49.7101C255.169 48.7943 253.718 49.4672 252.257 50.7246Z" fill="#7A8582"/>
<path d="M212.718 46.6003C214.653 48.0657 215.524 49.5441 216.198 51.8656C216.298 52.701 216.315 53.4902 216.311 54.3305C216.31 54.605 216.309 54.8794 216.308 55.1622C216.306 55.4763 216.306 55.4763 216.304 55.7968C205.27 56.3834 205.27 56.3834 204.094 55.7968C204.446 57.421 204.446 57.421 205.323 58.798C206.478 59.3432 207.563 59.5647 208.842 59.5166C209.85 59.0578 210.437 58.6026 211.217 57.8258C212.321 57.7597 212.321 57.7597 213.633 57.7835C214.285 57.7926 214.285 57.7926 214.95 57.802C215.285 57.8098 215.62 57.8177 215.965 57.8258C215.678 59.903 215.025 60.8135 213.527 62.2642C211.269 63.7653 209.442 64.0267 206.744 63.7014C206.514 63.6738 206.284 63.6463 206.048 63.618C203.99 63.3167 202.298 62.7051 200.956 61.0806C200.794 60.8897 200.631 60.6987 200.463 60.502C199.252 58.7195 199.231 57.0815 199.239 54.9936C199.234 54.7146 199.228 54.4357 199.223 54.1482C199.221 52.2898 199.519 51.0291 200.363 49.3716C200.496 49.0787 200.629 48.7858 200.766 48.484C203.325 45.1399 209.206 44.428 212.718 46.6003ZM204.772 50.7243C204 51.6763 204 51.6763 204.094 52.7533C206.444 52.7533 208.795 52.7533 211.217 52.7533C210.862 51.3409 210.594 50.6738 209.415 49.8155C207.459 48.8632 206.434 49.4352 204.772 50.7243Z" fill="#7A8582"/>
<path d="M154.337 46.6097C155.196 47.1989 155.801 47.7618 156.27 48.6955C156.323 49.6812 156.357 50.66 156.377 51.6465C156.384 51.9383 156.391 52.23 156.398 52.5306C156.421 53.4644 156.441 54.3982 156.46 55.3319C156.475 55.9642 156.49 56.5965 156.505 57.2288C156.541 58.7805 156.576 60.3322 156.609 61.8839C156.833 61.8839 157.057 61.8839 157.287 61.8839C157.287 62.3303 157.287 62.7766 157.287 63.2365C155.608 63.2365 153.929 63.2365 152.2 63.2365C151.976 62.7902 151.752 62.3438 151.521 61.8839C151.369 62.002 151.216 62.1201 151.059 62.2419C149.165 63.5778 147.409 64.1369 145.077 63.9129C143.602 63.4153 142.373 62.8619 141.611 61.4638C141.083 59.6052 141.123 57.705 141.346 55.7969C142.371 54.264 143.931 53.3804 145.733 52.9261C146.439 52.7922 147.144 52.6734 147.854 52.5632C149.783 52.2696 149.783 52.2696 151.521 51.4008C151.304 50.7135 151.304 50.7135 150.843 50.0481C149.456 49.5345 148.203 49.7965 146.773 50.0481C146.549 50.7177 146.325 51.3873 146.094 52.0771C145.487 52.0862 144.879 52.0928 144.271 52.0983C143.933 52.1022 143.594 52.1061 143.246 52.1101C142.363 52.0771 142.363 52.0771 141.685 51.739C141.473 50.0472 141.873 48.9892 142.822 47.6255C145.486 44.6676 151.034 44.921 154.337 46.6097ZM148.999 55.6701C148.763 55.7176 148.528 55.7651 148.285 55.8141C147.503 55.9831 147.503 55.9831 146.433 56.4733C145.9 57.4934 145.9 57.4934 145.755 58.5022C146.447 59.418 146.447 59.418 147.451 60.1931C148.906 60.2449 149.608 60.0058 150.8 59.1786C151.747 57.8457 151.822 56.7226 151.86 55.1206C150.907 55.1206 149.926 55.4532 148.999 55.6701Z" fill="#7A8582"/>
<path d="M121.674 15.5349C123.143 17.0454 123.142 18.4916 123.171 20.5281C123.177 20.8114 123.184 21.0947 123.191 21.3866C123.211 22.2892 123.227 23.1919 123.242 24.0946C123.255 24.7076 123.269 25.3205 123.282 25.9334C123.315 27.434 123.343 28.9346 123.37 30.4352C123.593 30.4352 123.817 30.4352 124.048 30.4352C123.936 30.8816 123.824 31.328 123.709 31.7879C122.03 31.6763 120.351 31.5647 118.621 31.4497C118.453 30.7802 118.453 30.7802 118.282 30.0971C118.058 30.4318 117.834 30.7666 117.603 31.1116C115.587 32.1249 113.312 32.5853 111.125 31.9041C109.67 31.2741 108.555 30.4646 107.69 29.1275C107.1 27.503 107.397 25.5876 108.045 24.0113C108.885 22.5905 110.446 21.8686 111.984 21.3819C112.837 21.1812 113.688 21.0135 114.551 20.861C114.846 20.8041 115.141 20.7472 115.445 20.6886C116.164 20.5508 116.883 20.4198 117.603 20.2903C117.791 19.5884 117.943 18.9905 117.943 18.2613C117.335 18.2522 116.727 18.2456 116.12 18.2402C115.612 18.2343 115.612 18.2343 115.094 18.2283C114.217 18.2004 114.217 18.2004 113.533 18.5995C113.421 19.0459 113.309 19.4922 113.194 19.9521C111.627 19.9521 110.06 19.9521 108.446 19.9521C108.446 17.8363 108.543 17.455 109.802 15.8942C112.882 12.8239 118.234 13.3204 121.674 15.5349ZM115.399 24.1158C115.074 24.1982 114.748 24.2806 114.413 24.3654C113.509 24.6952 113.069 24.9204 112.516 25.7009C112.541 26.9233 112.541 26.9233 112.855 28.0681C113.894 28.5862 114.76 28.4838 115.908 28.4062C116.994 27.9489 117.466 27.6333 118.049 26.6097C118.308 25.598 118.33 24.7121 118.282 23.6719C117.229 23.6719 116.415 23.8502 115.399 24.1158Z" fill="#7A8582"/>
<path d="M229.872 45.6523C231.101 46.1173 231.101 46.1173 231.907 46.6668C232.243 46.89 232.579 47.1132 232.924 47.3431C234.172 50.0202 234.08 53.0067 234.037 55.8926C234.027 56.6285 234.023 57.3643 234.022 58.1003C233.998 61.6606 233.998 61.6606 233.603 63.2368C232.036 63.2368 230.469 63.2368 228.854 63.2368C228.844 62.7096 228.844 62.7096 228.834 62.1718C228.808 60.8659 228.778 59.5601 228.747 58.2544C228.734 57.6896 228.722 57.1247 228.711 56.5599C228.696 55.7473 228.676 54.9348 228.656 54.1222C228.652 53.8703 228.648 53.6184 228.644 53.3589C228.608 52.0977 228.537 51.1212 227.837 50.0484C225.778 49.8546 225.778 49.8546 223.936 50.6191C222.969 52.1056 223.033 53.7439 222.981 55.4762C222.974 55.699 222.967 55.9218 222.96 56.1513C222.938 56.8575 222.917 57.5638 222.897 58.27C222.883 58.7511 222.868 59.2321 222.853 59.7132C222.817 60.8877 222.783 62.0622 222.749 63.2368C221.182 63.2368 219.615 63.2368 218.001 63.2368C217.769 62.0802 217.619 61.2426 217.617 60.1081C217.616 59.8362 217.615 59.5642 217.614 59.2839C217.615 58.9947 217.616 58.7054 217.616 58.4074C217.616 58.1061 217.616 57.8047 217.615 57.4943C217.615 56.8587 217.616 56.2232 217.617 55.5877C217.619 54.617 217.617 53.6464 217.615 52.6758C217.615 52.0572 217.616 51.4385 217.616 50.8199C217.616 50.5306 217.615 50.2414 217.614 49.9434C217.615 49.6714 217.616 49.3994 217.617 49.1191C217.618 48.8817 217.618 48.6442 217.618 48.3996C217.661 47.6813 217.661 47.6813 218.001 45.9905C219.568 45.9905 221.135 45.9905 222.749 45.9905C222.861 46.4368 222.973 46.8832 223.088 47.3431C223.354 47.1269 223.62 46.9107 223.894 46.6879C225.719 45.2581 227.619 45.4938 229.872 45.6523Z" fill="#7A8582"/>
<path d="M139.989 14.8796C141.04 15.7716 141.588 16.2797 142.024 17.585C142.053 18.0469 142.064 18.5101 142.062 18.9729C142.062 19.2504 142.062 19.5279 142.062 19.8138C142.061 20.1118 142.059 20.4099 142.057 20.7169C142.057 21.0233 142.056 21.3296 142.056 21.6451C142.054 22.6237 142.049 23.6022 142.045 24.5807C142.043 25.2441 142.042 25.9074 142.04 26.5708C142.037 28.1971 142.031 29.8234 142.024 31.4497C140.898 31.7594 140.051 31.7774 138.886 31.6399C138.584 31.6055 138.281 31.571 137.97 31.5356C137.741 31.5072 137.511 31.4789 137.275 31.4497C137.27 31.0982 137.266 30.7468 137.26 30.3847C137.241 29.0787 137.215 27.773 137.186 26.4672C137.175 25.9024 137.166 25.3376 137.158 24.7728C137.146 23.9601 137.129 23.1477 137.11 22.3351C137.108 22.0832 137.105 21.8313 137.103 21.5717C137.073 20.5076 136.996 19.7253 136.488 18.7794C135.903 18.1524 135.903 18.1524 134.774 18.0711C133.245 18.3076 132.783 18.7463 131.849 19.9521C131.421 21.1591 131.44 22.3861 131.402 23.6561C131.395 23.8793 131.388 24.1026 131.381 24.3326C131.359 25.0423 131.339 25.752 131.319 26.4618C131.304 26.9444 131.289 27.427 131.274 27.9095C131.238 29.0895 131.204 30.2696 131.17 31.4497C130.047 31.8229 129.39 31.7631 128.224 31.6399C127.886 31.6055 127.549 31.571 127.202 31.5356C126.945 31.5072 126.687 31.4789 126.422 31.4497C126.413 29.0479 126.407 26.6461 126.403 24.2443C126.401 23.4265 126.399 22.6087 126.396 21.791C126.392 20.6184 126.39 19.4458 126.389 18.2732C126.387 17.9051 126.385 17.537 126.383 17.1577C126.383 16.8192 126.383 16.4807 126.383 16.132C126.382 15.8324 126.382 15.5328 126.381 15.2241C126.422 14.5415 126.422 14.5415 126.761 14.2033C127.502 14.1788 128.245 14.175 128.987 14.1822C129.596 14.1868 129.596 14.1868 130.218 14.1914C130.532 14.1954 130.846 14.1993 131.17 14.2033C131.282 14.6497 131.394 15.0961 131.509 15.556C131.817 15.3398 132.125 15.1235 132.442 14.9008C134.871 13.3641 137.479 13.5527 139.989 14.8796Z" fill="#7A8582"/>
<path d="M238.012 41.2559C239.579 41.2559 241.146 41.2559 242.76 41.2559C242.76 42.8182 242.76 44.3805 242.76 45.9902C243.656 45.9902 244.551 45.9902 245.474 45.9902C245.474 47.2177 245.474 48.4452 245.474 49.71C244.578 49.71 243.683 49.71 242.76 49.71C242.872 52.8346 242.984 55.9592 243.1 59.1786C244.275 59.346 244.275 59.346 245.474 59.5167C245.474 60.7443 245.474 61.9718 245.474 63.2365C243.271 63.7433 241.313 63.5667 239.199 62.8138C238.351 62.222 238.351 62.222 238.131 61.4979C237.986 60.3233 237.974 59.1826 237.979 57.999C237.979 57.7612 237.98 57.5234 237.98 57.2784C237.982 56.5239 237.986 55.7694 237.991 55.0149C237.992 54.5013 237.994 53.9877 237.995 53.474C237.999 52.2193 238.005 50.9646 238.012 49.71C237.228 49.71 236.445 49.71 235.638 49.71C235.638 48.4824 235.638 47.2549 235.638 45.9902C236.421 45.9902 237.205 45.9902 238.012 45.9902C238.012 44.4278 238.012 42.8655 238.012 41.2559Z" fill="#7A8582"/>
<path d="M132.527 41.2559C133.982 41.2559 135.437 41.2559 136.936 41.2559C136.936 42.8182 136.936 44.3805 136.936 45.9902C137.831 45.9902 138.727 45.9902 139.649 45.9902C139.649 47.2177 139.649 48.4452 139.649 49.71C138.754 49.71 137.859 49.71 136.936 49.71C137.104 54.5643 137.104 54.5643 137.275 59.5167C138.059 59.5167 138.842 59.5167 139.649 59.5167C139.649 60.7443 139.649 61.9718 139.649 63.2365C137.538 63.7224 135.51 63.6895 133.544 62.7504C132.866 62.222 132.866 62.222 132.527 61.5457C132.497 60.6576 132.487 59.7786 132.493 58.8906C132.494 58.6288 132.494 58.3671 132.495 58.0974C132.497 57.2601 132.501 56.4229 132.505 55.5856C132.507 55.0184 132.509 54.4513 132.51 53.8842C132.514 52.4928 132.52 51.1014 132.527 49.71C131.743 49.71 130.96 49.71 130.152 49.71C130.152 48.4824 130.152 47.2549 130.152 45.9902C130.936 45.9902 131.719 45.9902 132.527 45.9902C132.527 44.4278 132.527 42.8655 132.527 41.2559Z" fill="#7A8582"/>
<path d="M160.001 39.9033C161.568 39.9033 163.135 39.9033 164.749 39.9033C164.749 47.6033 164.749 55.3033 164.749 63.2367C163.294 63.2367 161.839 63.2367 160.34 63.2367C160.001 62.8985 160.001 62.8985 159.96 61.9848C159.961 61.5771 159.961 61.1693 159.962 60.7492C159.962 60.5249 159.962 60.3005 159.962 60.0694C159.962 59.3247 159.965 58.58 159.968 57.8353C159.968 57.3202 159.969 56.8051 159.969 56.2901C159.97 54.9319 159.974 53.5737 159.977 52.2156C159.981 50.8307 159.982 49.4458 159.984 48.0609C159.988 45.3417 159.994 42.6225 160.001 39.9033Z" fill="#7A8582"/>
<path d="M275.661 45.6518C275.728 46.1869 275.791 46.7224 275.852 47.2581C275.888 47.5563 275.923 47.8544 275.959 48.1616C275.999 48.9943 275.911 49.5966 275.661 50.3861C275.249 50.421 274.836 50.4559 274.411 50.4918C273.123 50.6667 272.227 50.8243 271.252 51.7388C270.539 54.2157 270.433 56.6339 270.362 59.1995C270.342 59.7838 270.342 59.7838 270.322 60.3798C270.29 61.3319 270.262 62.2841 270.234 63.2364C268.667 63.2364 267.1 63.2364 265.486 63.2364C265.254 62.0797 265.104 61.2422 265.103 60.1077C265.102 59.8357 265.101 59.5637 265.1 59.2834C265.1 58.9942 265.101 58.705 265.102 58.407C265.101 58.1056 265.101 57.8043 265.101 57.4938C265.1 56.8583 265.101 56.2227 265.103 55.5872C265.104 54.6166 265.103 53.646 265.1 52.6753C265.101 52.0567 265.101 51.438 265.102 50.8194C265.101 50.5302 265.1 50.2409 265.1 49.9429C265.101 49.6709 265.102 49.3989 265.103 49.1187C265.103 48.8812 265.103 48.6438 265.104 48.3991C265.147 47.6808 265.147 47.6808 265.486 45.99C267.053 45.99 268.62 45.99 270.234 45.99C270.346 46.548 270.458 47.1059 270.574 47.6808C270.839 47.4088 271.105 47.1368 271.379 46.8565C272.839 45.436 273.696 45.6202 275.661 45.6518Z" fill="#7A8582"/>
<path d="M106.75 13.8652C106.75 15.4276 106.75 16.9899 106.75 18.5995C105.792 19.0769 104.856 19.0133 103.795 19.0487C102.969 19.2391 102.969 19.2391 102.246 19.8743C101.329 21.5884 101.534 23.2648 101.598 25.1726C101.616 25.926 101.633 26.6793 101.647 27.4328C101.658 27.7655 101.668 28.0983 101.679 28.4412C101.662 29.4208 101.662 29.4208 101.323 31.4498C99.7557 31.4498 98.1887 31.4498 96.5742 31.4498C96.5742 25.7585 96.5742 20.0672 96.5742 14.2034C98.0293 14.2034 99.4844 14.2034 100.984 14.2034C101.095 14.873 101.207 15.5425 101.323 16.2324C101.568 15.9673 101.812 15.7023 102.065 15.4292C103.68 13.9258 104.502 13.8652 106.75 13.8652Z" fill="#7A8582"/>
<path d="M123.03 45.9902C124.709 45.9902 126.388 45.9902 128.118 45.9902C128.006 51.6815 127.894 57.3728 127.779 63.2366C126.531 63.5475 125.88 63.573 124.641 63.4268C124.339 63.3924 124.036 63.358 123.724 63.3225C123.495 63.2941 123.266 63.2658 123.03 63.2366C122.973 60.8349 122.919 58.4331 122.867 56.0312C122.848 55.2134 122.83 54.3956 122.81 53.5779C122.783 52.4053 122.757 51.2327 122.732 50.0601C122.718 49.5079 122.718 49.5079 122.704 48.9446C122.697 48.6061 122.691 48.2677 122.684 47.9189C122.677 47.6193 122.67 47.3197 122.663 47.011C122.691 46.3284 122.691 46.3284 123.03 45.9902Z" fill="#7A8582"/>
<path d="M94.8779 45.9902C96.4449 45.9902 98.0119 45.9902 99.6264 45.9902C99.6264 51.6815 99.6264 57.3728 99.6264 63.2366C98.0594 63.2366 96.4924 63.2366 94.8779 63.2366C94.8779 57.5453 94.8779 51.854 94.8779 45.9902Z" fill="#7A8582"/>
<path d="M39.0058 50.7245C39.2297 50.7245 39.4536 50.7245 39.6842 50.7245C40.2495 50.7245 40.8148 50.7245 41.3801 50.7245C41.4195 52.218 41.4436 53.7114 41.4649 55.2052C41.482 55.8414 41.482 55.8414 41.4993 56.4905C41.5037 56.8981 41.5081 57.3057 41.5126 57.7256C41.5197 58.101 41.5268 58.4765 41.5341 58.8633C41.3444 60.0847 40.9927 60.462 40.0234 61.2076C38.5057 61.712 36.9906 61.76 35.4657 61.2922C34.9357 60.8695 34.9357 60.8695 34.5965 59.5168C36.0516 59.5168 37.5067 59.5168 39.0058 59.5168C39.0058 59.0704 39.0058 58.624 39.0058 58.1641C38.6491 58.2409 38.2923 58.3176 37.9247 58.3966C36.481 58.5146 36.0334 58.3946 34.9357 57.4878C34.0145 55.9905 33.985 54.4604 34.2573 52.7535C35.4678 50.5147 36.6353 50.3447 39.0058 50.7245Z" fill="#FEFCFB"/>
<path d="M8.81903 50.724C9.91812 51.5915 10.4117 52.106 10.8541 53.4293C11.082 55.7395 11.082 55.7395 10.499 56.7502C9.70465 57.7146 9.07501 58.4307 7.80546 58.5824C6.44136 58.6258 5.63749 58.6222 4.43089 57.9311C3.36556 56.7403 3.09859 55.8752 2.92578 54.2959C3.07849 52.8494 3.47916 52.1703 4.40969 51.0622C5.86975 50.1467 7.19753 50.2716 8.81903 50.724Z" fill="#FEFCFB"/>
<path d="M23.3135 50.854C24.4882 52.2069 24.2668 53.479 24.188 55.2052C24.1803 55.5217 24.1726 55.8382 24.1648 56.1642C24.1448 56.9441 24.117 57.723 24.082 58.5023C23.5223 58.5023 22.9627 58.5023 22.3861 58.5023C22.3861 58.2791 22.3861 58.0559 22.3861 57.826C22.2112 57.9376 22.0363 58.0492 21.8561 58.1642C20.7193 58.6291 19.8729 58.6324 18.6551 58.5023C17.8283 57.9528 17.8283 57.9528 17.2984 57.1497C17.1076 56.1352 17.1076 56.1352 17.2984 55.1207C18.4781 53.9754 19.2527 53.4371 20.9021 53.4087C21.2799 53.4157 21.6577 53.4227 22.0469 53.4299C21.935 52.9835 21.823 52.5371 21.7077 52.0772C20.6485 52.2415 19.674 52.4149 18.6551 52.7535C18.4312 52.6419 18.2074 52.5303 17.9767 52.4154C18.0886 51.5787 18.1734 51.1764 18.8459 50.64C20.5051 50.131 21.7826 50.0821 23.3135 50.854Z" fill="#FEFCFB"/>
<path d="M47.485 50.3868C48.7154 50.9444 49.5494 51.562 50.1984 52.7539C50.1984 53.4235 50.1984 54.0931 50.1984 54.7829C48.4075 54.7829 46.6167 54.7829 44.7715 54.7829C44.9954 55.3409 45.2192 55.8989 45.4499 56.4737C47.1739 56.512 47.1739 56.512 48.8417 56.1356C49.1775 56.4704 49.5132 56.8051 49.8592 57.1501C48.7776 58.2774 48.0988 58.5733 46.531 58.6507C44.965 58.6439 44.965 58.6439 44.1833 58.0734C43.0181 56.6692 42.6185 55.6176 42.6384 53.8028C42.7971 52.6526 43.3614 51.9386 44.0932 51.0631C45.3569 50.2232 45.9882 50.2581 47.485 50.3868Z" fill="#FEFCFB"/>
<path d="M31.5444 50.3867C32.3868 51.1192 32.8462 51.6984 33.0085 52.8187C33.0346 53.6816 33.0194 54.5331 32.9859 55.3957C32.9798 55.6945 32.9736 55.9934 32.9673 56.3012C32.9514 57.0352 32.9271 57.7689 32.9011 58.5026C32.1176 58.5026 31.3341 58.5026 30.5268 58.5026C30.5268 56.3823 30.5268 54.262 30.5268 52.0775C29.7433 52.3007 28.9598 52.5239 28.1526 52.7538C28.0406 54.6509 27.9287 56.548 27.8134 58.5026C27.1418 58.5026 26.4702 58.5026 25.7783 58.5026C25.7783 55.9359 25.7783 53.3693 25.7783 50.7248C26.338 50.7248 26.8976 50.7248 27.4742 50.7248C27.4742 50.948 27.4742 51.1712 27.4742 51.4012C27.7051 51.2338 27.9359 51.0664 28.1738 50.8939C29.4177 50.2606 30.1645 50.1866 31.5444 50.3867Z" fill="#FEFCFB"/>
<path d="M16.6203 50.3867C16.6203 51.0563 16.6203 51.7258 16.6203 52.4157C15.9487 52.5273 15.2771 52.6389 14.5852 52.7539C14.5852 54.651 14.5852 56.5481 14.5852 58.5027C13.8017 58.5027 13.0182 58.5027 12.2109 58.5027C12.2109 55.936 12.2109 53.3693 12.2109 50.7249C13.1154 50.7249 14.0199 50.7249 14.9244 50.7249C15.6027 50.3867 15.6027 50.3867 16.6203 50.3867Z" fill="#FEFCFB"/>
<path d="M123.03 39.9033C124.597 39.9033 126.164 39.9033 127.779 39.9033C127.779 41.354 127.779 42.8048 127.779 44.2995C126.212 44.411 124.645 44.5226 123.03 44.6376C123.03 43.0753 123.03 41.513 123.03 39.9033Z" fill="#7A8582"/>
<path d="M95.9501 39.8701C96.6053 39.876 96.6053 39.876 97.2737 39.882C97.7114 39.8851 98.149 39.8881 98.5999 39.8913C98.9388 39.8952 99.2776 39.8991 99.6268 39.9031C99.6268 41.3539 99.6268 42.8046 99.6268 44.2993C98.0597 44.2993 96.4927 44.2993 94.8782 44.2993C94.5801 41.162 94.5801 41.162 94.5391 40.2413C94.8782 39.9031 94.8782 39.9031 95.9501 39.8701Z" fill="#7A8582"/>
<path d="M6.95362 51.9082C7.80157 52.0773 7.80157 52.0773 8.41633 52.6057C8.96801 53.7347 8.95476 54.5573 8.81911 55.7971C8.41633 56.4523 8.41633 56.4523 7.80157 56.8116C6.95362 56.9595 6.95362 56.9595 6.10567 56.8116C5.25464 56.0509 5.10286 55.5764 4.96094 54.4444C5.14176 53.0022 5.4593 52.2062 6.95362 51.9082Z" fill="#7A8582"/>
<path d="M37.7971 51.9512C38.6663 52.078 38.6663 52.078 39.2811 52.6275C39.7993 53.6609 39.8272 54.3164 39.6838 55.4596C39.1751 56.2628 39.1751 56.2628 38.6663 56.8123C37.67 56.6855 37.67 56.6855 36.6312 56.4741C36.2321 55.6783 36.2357 55.1618 36.2284 54.2761C36.2236 54.0075 36.2188 53.739 36.2139 53.4623C36.3344 52.3705 36.7376 52.1137 37.7971 51.9512Z" fill="#7A8582"/>
<path d="M22.0464 54.4443C22.11 55.4166 22.11 55.4166 22.0464 56.4733C21.0289 57.1496 21.0289 57.1496 20.1174 57.0228C19.8585 56.9531 19.5997 56.8833 19.333 56.8115C19.439 56.0083 19.439 56.0083 19.6722 55.1207C20.6897 54.4443 20.6897 54.4443 22.0464 54.4443Z" fill="#7A8582"/>
<path d="M51.2158 47.6816C51.5516 47.6816 51.8874 47.6816 52.2334 47.6816C52.4572 48.0164 52.6811 48.3512 52.9117 48.6961C53.1356 48.3614 53.3594 48.0266 53.5901 47.6816C53.8139 47.6816 54.0378 47.6816 54.2684 47.6816C54.2684 48.4628 54.2684 49.244 54.2684 50.0488C53.2509 50.0488 52.2334 50.0488 51.2158 50.0488C51.2158 49.2676 51.2158 48.4865 51.2158 47.6816Z" fill="#FEFCFB"/>
<path d="M39.3452 57.4883C39.4572 57.4883 39.5691 57.4883 39.6844 57.4883C39.7268 58.2914 39.7268 58.2914 39.6844 59.1791C39.0061 59.8554 39.0061 59.8554 37.8401 59.94C36.6318 59.8554 36.6318 59.8554 35.6143 59.1791C35.9756 59.0385 35.9756 59.0385 36.3443 58.8951C36.8119 58.7114 36.8119 58.7114 37.289 58.5239C37.5998 58.4023 37.9107 58.2807 38.231 58.1554C38.9803 57.8942 38.9803 57.8942 39.3452 57.4883Z" fill="#7A8582"/>
<path d="M20.3505 51.7393C20.9102 51.8509 21.4698 51.9624 22.0464 52.0774C22.0464 52.5238 22.0464 52.9702 22.0464 53.4301C21.151 53.5417 20.2556 53.6533 19.333 53.7682C19.6722 53.0919 20.0114 52.4156 20.3505 51.7393Z" fill="#7A8582"/>
<path d="M45.4498 52.0771C46.1214 52.0771 46.793 52.0771 47.4849 52.0771C47.5969 52.5235 47.7088 52.9699 47.8241 53.4298C46.8167 53.4298 45.8094 53.4298 44.7715 53.4298C44.9953 52.9834 45.2192 52.5371 45.4498 52.0771Z" fill="#7A8582"/>
</g>
<defs>
<clipPath id="clip0_2001_1566">
<rect width="276" height="70" fill="white"/>
</clipPath>
</defs>
</svg>
