<svg width="114" height="70" viewBox="0 0 114 70" fill="none" xmlns="http://www.w3.org/2000/svg">
<g clip-path="url(#clip0_2001_1317)">
<mask id="mask0_2001_1317" style="mask-type:luminance" maskUnits="userSpaceOnUse" x="0" y="-47" width="114" height="164">
<path d="M114 -46.4131H0V116.033H114V-46.4131Z" fill="white"/>
</mask>
<g mask="url(#mask0_2001_1317)">
<path d="M47.81 42.872C47.4557 42.7099 47.0727 42.5884 46.6533 42.5093C46.2339 42.4282 45.78 42.3877 45.2821 42.3877H43.1123V45.7046H45.2821C45.78 45.7046 46.2339 45.664 46.6513 45.583C47.0707 45.502 47.4538 45.3823 47.808 45.2183C48.1623 45.0543 48.4228 44.8768 48.5971 44.6819C48.7713 44.487 48.8594 44.2748 48.8594 44.0432C48.8594 43.8117 48.7713 43.5994 48.5971 43.4065C48.4228 43.2135 48.1623 43.036 47.81 42.872Z" fill="#7A8683"/>
</g>
<mask id="mask1_2001_1317" style="mask-type:luminance" maskUnits="userSpaceOnUse" x="0" y="-47" width="114" height="164">
<path d="M114 -46.4131H0V116.033H114V-46.4131Z" fill="white"/>
</mask>
<g mask="url(#mask1_2001_1317)">
<path d="M33.2188 49.0966H36.8574L35.0381 44.0566L33.2188 49.0966Z" fill="#7A8683"/>
</g>
<mask id="mask2_2001_1317" style="mask-type:luminance" maskUnits="userSpaceOnUse" x="0" y="-47" width="114" height="164">
<path d="M114 -46.4131H0V116.033H114V-46.4131Z" fill="white"/>
</mask>
<g mask="url(#mask2_2001_1317)">
<path d="M12.375 61.5199H102.013V35.9902H12.375V61.5199ZM28.5937 54.0565C27.8832 54.7087 27.1057 55.2007 26.2631 55.5287C25.4204 55.8567 24.5165 56.0207 23.5532 56.0207C22.521 56.0207 21.5597 55.8374 20.6749 55.4689C19.7901 55.1004 18.9801 54.5466 18.2542 53.8134C17.5265 53.0821 16.9769 52.2678 16.6111 51.3744C16.2453 50.483 16.0634 49.5124 16.0634 48.4724C16.0634 47.4362 16.2453 46.4695 16.6111 45.5781C16.9769 44.6867 17.5265 43.8724 18.2523 43.1392C18.9781 42.4059 19.7863 41.8502 20.673 41.4817C21.5577 41.1112 22.521 40.9279 23.5532 40.9279C24.5146 40.9279 25.4204 41.0919 26.2631 41.42C27.1057 41.748 27.8832 42.24 28.5937 42.8922L28.7871 43.0697L27.8315 43.9476L27.6706 43.8029C27.0827 43.2762 26.4488 42.8845 25.7632 42.624C25.0795 42.3635 24.3442 42.2323 23.5532 42.2323C22.6934 42.2323 21.9024 42.3847 21.1747 42.6896C20.447 42.9944 19.7806 43.4498 19.1716 44.0634C18.5626 44.677 18.1106 45.3485 17.81 46.0817C17.5074 46.8149 17.3561 47.6118 17.3561 48.4782C17.3561 49.3484 17.5074 50.1472 17.81 50.8824C18.1125 51.6175 18.5645 52.289 19.1716 52.9026C19.7806 53.5162 20.447 53.9716 21.1747 54.2764C21.9024 54.5794 22.6934 54.7337 23.5532 54.7337C24.3442 54.7337 25.0795 54.6025 25.7632 54.342C26.4469 54.0796 27.0827 53.6899 27.6706 53.1631L27.8296 53.0203L28.7871 53.8867L28.5937 54.0565ZM39.297 55.849L37.3226 50.3807H32.7532L30.7788 55.849H29.4191L35.0379 40.542L40.6471 55.849H39.297ZM49.7858 47.8781C49.5483 48.4589 49.1902 48.9895 48.7172 49.4642C48.2461 49.9388 47.7214 50.2997 47.1449 50.5409C46.5685 50.7821 45.9461 50.8998 45.2797 50.8998H43.1099V55.8509H41.8344V41.0958H45.8082L45.8235 41.0977C46.9515 41.2521 47.9244 41.7345 48.7134 42.5314C49.1845 43.006 49.5426 43.5347 49.782 44.1155C50.0214 44.6944 50.1382 45.3234 50.1382 45.9949C50.142 46.6664 50.0252 47.2973 49.7858 47.8781ZM59.0873 53.2615C58.869 53.7921 58.5434 54.2764 58.1125 54.7087C57.6816 55.1428 57.2028 55.4708 56.6781 55.6908C56.1534 55.9108 55.5846 56.0188 54.9775 56.0188C54.3705 56.0188 53.8017 55.9088 53.277 55.6889C52.7522 55.467 52.2735 55.137 51.8426 54.699C51.1551 54.0082 50.7338 53.1882 50.5978 52.262L50.5691 52.0671L51.7909 51.6175L51.8234 51.9224C51.9019 52.6421 52.1988 53.2596 52.7369 53.8037C53.051 54.1202 53.3919 54.3517 53.7615 54.508C54.133 54.6624 54.5352 54.7415 54.9756 54.7415C55.4199 54.7415 55.824 54.6624 56.1974 54.508C56.569 54.3536 56.9098 54.1202 57.2239 53.8037C57.538 53.4873 57.7678 53.1438 57.9229 52.7695C58.0761 52.3951 58.1546 51.9861 58.1546 51.5384C58.1546 51.0946 58.0761 50.6894 57.9229 50.3151C57.7697 49.9427 57.538 49.5993 57.2239 49.2828C56.6647 48.7194 55.9772 48.2679 55.1537 47.9263C54.1234 47.579 53.2961 47.1005 52.6814 46.4811C52.3692 46.1666 52.1298 45.8135 51.9728 45.4257C51.8139 45.0378 51.7353 44.6172 51.7353 44.1695C51.7353 43.7296 51.8139 43.3148 51.9728 42.9308C52.1318 42.5468 52.3692 42.1956 52.6814 41.8792C52.9935 41.5627 53.344 41.3215 53.7289 41.1614C54.1138 41.0012 54.5313 40.9202 54.9756 40.9202C55.4161 40.9202 55.8336 40.9993 56.2185 41.1595C56.6015 41.3196 56.952 41.5589 57.268 41.8715C57.268 41.8715 57.268 41.8734 57.2699 41.8734C57.6184 42.213 57.8655 42.6008 58.0014 43.033L58.0685 43.2472L56.9156 43.7064L56.8313 43.4749C56.7375 43.2183 56.5843 42.9829 56.3641 42.759C56.1687 42.5661 55.9581 42.4233 55.7282 42.3288C55.4984 42.2342 55.2495 42.186 54.9737 42.186C54.6979 42.186 54.449 42.2342 54.2192 42.3288C53.9894 42.4233 53.7787 42.5661 53.5834 42.761C53.388 42.9559 53.2463 43.1681 53.1506 43.3996C53.0548 43.6312 53.0069 43.884 53.0069 44.1657C53.0069 44.4435 53.0548 44.6944 53.1506 44.9259C53.2463 45.1555 53.388 45.3678 53.5834 45.5646C53.9568 45.9351 54.4854 46.2862 55.1729 46.6104C56.3296 46.9886 57.312 47.581 58.1087 48.3836C58.5396 48.8139 58.8651 49.2944 59.0834 49.8231C59.3018 50.3498 59.409 50.9229 59.409 51.5346C59.4128 52.1559 59.3037 52.7309 59.0873 53.2615ZM70.4359 51.6118L70.434 51.6272C70.2808 52.7637 69.8021 53.7439 69.0111 54.5389C68.54 55.0135 68.0153 55.3744 67.4389 55.6155C66.8643 55.8567 66.24 55.9744 65.5736 55.9744C64.9052 55.9744 64.279 55.8548 63.7026 55.6155C63.1261 55.3763 62.5995 55.0155 62.1284 54.5389C61.6573 54.0642 61.2992 53.5355 61.0598 52.9547C60.8223 52.3758 60.7036 51.7468 60.7036 51.0753V41.0939H61.9867V51.0753C61.9867 51.577 62.0748 52.0343 62.249 52.4569C62.4233 52.8795 62.6838 53.2654 63.0381 53.6223C63.3923 53.9774 63.7773 54.2398 64.1967 54.4154C64.6161 54.591 65.0738 54.6797 65.5736 54.6797C66.0734 54.6797 66.5292 54.591 66.9486 54.4154C67.368 54.2398 67.751 53.9774 68.1034 53.6223C68.4558 53.2654 68.7162 52.8795 68.8886 52.4569C69.0609 52.0343 69.149 51.577 69.149 51.0753V41.335V41.0939H70.4321V51.6118H70.4359ZM79.3774 55.849H72.8528H72.6134V41.0939H73.8888V54.5639H79.3774V55.849ZM88.585 42.3809H82.2998V47.8318H88.585V49.1169H82.2998V54.5678H88.585V55.8529H81.0243V41.0977H88.3456H88.585V42.3809ZM98.1489 53.2615C97.9305 53.7921 97.605 54.2764 97.1741 54.7087C96.7432 55.1428 96.2644 55.4708 95.7397 55.6908C95.215 55.9108 94.6462 56.0188 94.0391 56.0188C93.432 56.0188 92.8633 55.9088 92.3386 55.6889C91.8138 55.467 91.3351 55.137 90.9042 54.7009C90.2167 54.0102 89.7953 53.1901 89.6594 52.2639L89.6306 52.0691L90.8544 51.6195L90.8869 51.9243C90.9654 52.6441 91.2623 53.2615 91.8004 53.8056C92.1145 54.1221 92.4554 54.3536 92.825 54.5099C93.1965 54.6643 93.5987 54.7434 94.0391 54.7434C94.4834 54.7434 94.8875 54.6643 95.2609 54.5099C95.6325 54.3555 95.9733 54.1221 96.2874 53.8056C96.6015 53.4892 96.8313 53.1457 96.9864 52.7714C97.1396 52.3971 97.2181 51.988 97.2181 51.5404C97.2181 51.0966 97.1396 50.6914 96.9864 50.317C96.8313 49.9427 96.6015 49.6012 96.2874 49.2847C95.7282 48.7213 95.0407 48.2698 94.2172 47.9283C93.1869 47.581 92.3596 47.1024 91.7449 46.483C91.4327 46.1685 91.1933 45.8154 91.0363 45.4276C90.8773 45.0398 90.7988 44.6191 90.7988 44.1715C90.7988 43.7315 90.8773 43.3167 91.0363 42.9327C91.1953 42.5487 91.4327 42.1975 91.7449 41.8811C92.057 41.5647 92.4075 41.3235 92.7924 41.1633C93.1773 41.0032 93.5948 40.9221 94.0391 40.9221C94.4796 40.9221 94.8971 41.0012 95.282 41.1614C95.665 41.3215 96.0174 41.5608 96.3315 41.8734C96.3315 41.8734 96.3315 41.8734 96.3334 41.8753C96.3334 41.8753 96.3353 41.8753 96.3353 41.8772C96.6838 42.2149 96.9309 42.6047 97.0668 43.0369L97.1358 43.2511L95.9829 43.7103L95.8987 43.4788C95.8048 43.2221 95.6516 42.9867 95.4314 42.7629C95.236 42.57 95.0254 42.4272 94.7975 42.3326C94.5677 42.2381 94.3187 42.1898 94.043 42.1898C93.7672 42.1898 93.5182 42.2381 93.2884 42.3326C93.0586 42.4272 92.848 42.57 92.6526 42.7648C92.4573 42.9597 92.3156 43.172 92.2198 43.4035C92.126 43.6351 92.0762 43.8878 92.0762 44.1695C92.0762 44.4474 92.1241 44.6982 92.2198 44.9298C92.3156 45.1594 92.4573 45.3716 92.6526 45.5685C93.0261 45.9389 93.5546 46.2901 94.2402 46.6143C95.3969 46.9924 96.3793 47.5848 97.176 48.3875C97.6069 48.8178 97.9325 49.2982 98.1508 49.8269C98.3691 50.3537 98.4763 50.9268 98.4763 51.5384C98.4744 52.1559 98.3672 52.7309 98.1489 53.2615Z" fill="#7A8683"/>
</g>
<mask id="mask3_2001_1317" style="mask-type:luminance" maskUnits="userSpaceOnUse" x="0" y="-47" width="114" height="164">
<path d="M114 -46.4131H0V116.033H114V-46.4131Z" fill="white"/>
</mask>
<g mask="url(#mask3_2001_1317)">
<path d="M27.427 10.4102V13.0478H19.1443V19.2783H27.427V21.914H19.1443V28.1445H27.427V30.7938H16.5283V10.4102H27.427Z" fill="#7A8683"/>
</g>
<mask id="mask4_2001_1317" style="mask-type:luminance" maskUnits="userSpaceOnUse" x="0" y="-47" width="114" height="164">
<path d="M114 -46.4131H0V116.033H114V-46.4131Z" fill="white"/>
</mask>
<g mask="url(#mask4_2001_1317)">
<path d="M33.5347 21.2022V30.7958H30.9053V17.6866H33.5347V19.2148C34.0824 17.7194 35.1816 16.9727 36.8343 16.9727C38.2419 16.9727 39.3603 17.4763 40.1914 18.4816C41.0206 19.4868 41.4496 20.7507 41.4745 22.2712V30.7939H38.8566V22.3734C38.8566 21.617 38.5828 20.9707 38.0351 20.4304C37.4874 19.892 36.8343 19.6219 36.0759 19.6219C35.3252 19.6219 34.676 19.8843 34.1283 20.4111C33.8257 20.7256 33.6285 20.99 33.5347 21.2022Z" fill="#7A8683"/>
</g>
<mask id="mask5_2001_1317" style="mask-type:luminance" maskUnits="userSpaceOnUse" x="0" y="-47" width="114" height="164">
<path d="M114 -46.4131H0V116.033H114V-46.4131Z" fill="white"/>
</mask>
<g mask="url(#mask5_2001_1317)">
<path d="M56.5974 18.5893V17.6843H59.2268V27.4304C59.2268 29.9793 58.5393 31.9455 57.1662 33.329C55.7586 34.5774 54.0599 35.2026 52.0702 35.2026C50.0804 35.2026 48.3818 34.5793 46.9742 33.329C46.6869 33.0396 46.2273 32.4549 45.5954 31.5712L48.1998 30.6276C48.5369 31.0348 48.7648 31.2991 48.8835 31.4168C49.7683 32.3005 50.8311 32.7424 52.0702 32.7424C54.1519 32.7424 55.5939 31.3666 56.3944 28.6151C55.5767 30.2128 54.1729 31.0097 52.1832 31.0097C50.1934 31.0097 48.4967 30.3208 47.0929 28.9451C45.6892 27.5693 44.9883 25.879 44.9883 23.8743C44.9883 21.8695 45.6892 20.1599 47.0929 18.7456C48.4967 17.3312 50.1934 16.625 52.1832 16.625C53.8627 16.6269 55.3335 17.281 56.5974 18.5893ZM56.5859 22.8574C56.4251 22.0509 56.021 21.3196 55.3718 20.6654C54.4947 19.774 53.4337 19.3283 52.1851 19.3283C50.9384 19.3283 49.8736 19.774 48.9927 20.6654C48.1118 21.5569 47.6713 22.6278 47.6713 23.8762C47.6713 25.1342 48.1118 26.2051 48.9927 27.0927C49.8736 27.9803 50.9384 28.4241 52.1851 28.4241C53.4318 28.4241 54.4947 27.9822 55.3718 27.0985C56.021 26.4444 56.4251 25.7228 56.5859 24.9336V22.8574Z" fill="#7A8683"/>
</g>
<mask id="mask6_2001_1317" style="mask-type:luminance" maskUnits="userSpaceOnUse" x="0" y="-47" width="114" height="164">
<path d="M114 -46.4131H0V116.033H114V-46.4131Z" fill="white"/>
</mask>
<g mask="url(#mask6_2001_1317)">
<path d="M65.7016 10.3984H63.0723V30.7956H65.7016V10.3984Z" fill="#7A8683"/>
</g>
<mask id="mask7_2001_1317" style="mask-type:luminance" maskUnits="userSpaceOnUse" x="0" y="-47" width="114" height="164">
<path d="M114 -46.4131H0V116.033H114V-46.4131Z" fill="white"/>
</mask>
<g mask="url(#mask7_2001_1317)">
<path d="M79.784 27.9787C80.0962 28.2855 80.4658 28.4379 80.8967 28.4379C81.3256 28.4379 81.6952 28.2855 82.0036 27.9787C82.3119 27.6738 82.4651 27.2956 82.4651 26.8441C82.4651 26.4119 82.3138 26.0414 82.0093 25.7366C81.7987 25.5243 81.3467 25.1982 80.6573 24.7564C79.7132 24.2392 79.0429 23.78 78.6465 23.3806C77.9551 22.684 77.6104 21.8466 77.6104 20.8703C77.6104 19.8843 77.9551 19.0411 78.6465 18.3407C79.3378 17.6402 80.1728 17.2891 81.1494 17.2891C82.128 17.2891 82.94 17.6209 83.5892 18.2828C84.0527 18.7497 84.3476 19.2726 84.474 19.8496L81.9327 20.5886C81.8733 20.3763 81.814 20.2355 81.7565 20.1679C81.6052 20.0155 81.4022 19.9383 81.1494 19.9383C80.8967 19.9383 80.6803 20.029 80.4983 20.2123C80.3164 20.3956 80.2264 20.6136 80.2264 20.8683C80.2264 21.123 80.3145 21.3392 80.4926 21.5186C80.6515 21.671 81.0154 21.9315 81.5803 22.2962C82.626 22.8731 83.3843 23.3999 83.8574 23.8765C84.6751 24.7081 85.083 25.698 85.083 26.8441C85.083 28.0153 84.677 29.0168 83.8631 29.8445C83.0492 30.6723 82.061 31.0872 80.8986 31.0872C79.7438 31.0872 78.7575 30.6704 77.9398 29.8388C77.3749 29.2695 77.0033 28.5614 76.8271 27.7105L79.4316 27.149C79.5044 27.5426 79.6231 27.8185 79.784 27.9787Z" fill="#7A8683"/>
</g>
<mask id="mask8_2001_1317" style="mask-type:luminance" maskUnits="userSpaceOnUse" x="0" y="-47" width="114" height="164">
<path d="M114 -46.4131H0V116.033H114V-46.4131Z" fill="white"/>
</mask>
<g mask="url(#mask8_2001_1317)">
<path d="M87.6582 10.4102H90.2876V19.0989C91.0211 17.6806 92.0839 16.9706 93.4743 16.9706C94.8646 16.9706 95.9753 17.4742 96.8065 18.4795C97.6357 19.4848 98.0647 20.7486 98.0896 22.2691V30.7918H95.4717V22.3714C95.4717 21.615 95.2591 20.9686 94.834 20.4283C94.4088 19.89 93.7366 19.6198 92.8174 19.6198C91.7296 19.6198 90.887 20.2064 90.2876 21.3776V30.7918H87.6582V10.4102Z" fill="#7A8683"/>
</g>
<mask id="mask9_2001_1317" style="mask-type:luminance" maskUnits="userSpaceOnUse" x="0" y="-47" width="114" height="164">
<path d="M114 -46.4131H0V116.033H114V-46.4131Z" fill="white"/>
</mask>
<g mask="url(#mask9_2001_1317)">
<path d="M71.2191 13.8462C71.8281 13.8462 72.3241 14.3459 72.3241 14.9595V20.8291H70.1141V14.9595C70.1141 14.3459 70.6101 13.8462 71.2191 13.8462ZM71.2191 13.2441C70.2788 13.2441 69.5166 14.0121 69.5166 14.9595V21.4312H72.9235V14.9595C72.9216 14.0121 72.1594 13.2441 71.2191 13.2441Z" fill="#7A8683"/>
</g>
<mask id="mask10_2001_1317" style="mask-type:luminance" maskUnits="userSpaceOnUse" x="0" y="-47" width="114" height="164">
<path d="M114 -46.4131H0V116.033H114V-46.4131Z" fill="white"/>
</mask>
<g mask="url(#mask10_2001_1317)">
<path d="M69.5166 22.2744V29.1686C69.5166 30.116 70.2788 30.884 71.2191 30.884C72.1594 30.884 72.9216 30.116 72.9216 29.1686V22.2744H69.5166Z" fill="#7A8683"/>
</g>
<mask id="mask11_2001_1317" style="mask-type:luminance" maskUnits="userSpaceOnUse" x="0" y="-47" width="114" height="164">
<path d="M114 -46.4131H0V116.033H114V-46.4131Z" fill="white"/>
</mask>
<g mask="url(#mask11_2001_1317)">
<path d="M102.552 62.0615H11.8369V6.30566H102.552V62.0615ZM12.9132 60.9771H101.475V7.39006H12.9132V60.9771Z" fill="#7A8683"/>
</g>
<mask id="mask12_2001_1317" style="mask-type:luminance" maskUnits="userSpaceOnUse" x="0" y="-47" width="114" height="164">
<path d="M114 -46.4131H0V116.033H114V-46.4131Z" fill="white"/>
</mask>
<g mask="url(#mask12_2001_1317)">
<path d="M15.9985 63.5879H15.6289V66.4725H15.9985V63.5879Z" fill="#7A8683"/>
</g>
<mask id="mask13_2001_1317" style="mask-type:luminance" maskUnits="userSpaceOnUse" x="0" y="-47" width="114" height="164">
<path d="M114 -46.4131H0V116.033H114V-46.4131Z" fill="white"/>
</mask>
<g mask="url(#mask13_2001_1317)">
<path d="M17.3076 63.5879H17.6447L18.8263 65.6467V63.5879H19.1978V66.4725H18.8741L17.6772 64.3886V66.4725H17.3076V63.5879Z" fill="#7A8683"/>
</g>
<mask id="mask14_2001_1317" style="mask-type:luminance" maskUnits="userSpaceOnUse" x="0" y="-47" width="114" height="164">
<path d="M114 -46.4131H0V116.033H114V-46.4131Z" fill="white"/>
</mask>
<g mask="url(#mask14_2001_1317)">
<path d="M21.3299 63.9603V66.4725H20.9584V63.9603H20.29V63.5879H21.9983V63.9603H21.3299Z" fill="#7A8683"/>
</g>
<mask id="mask15_2001_1317" style="mask-type:luminance" maskUnits="userSpaceOnUse" x="0" y="-47" width="114" height="164">
<path d="M114 -46.4131H0V116.033H114V-46.4131Z" fill="white"/>
</mask>
<g mask="url(#mask15_2001_1317)">
<path d="M24.6314 63.5879V63.9603H23.4594V64.8421H24.6314V65.2164H23.4594V66.0982H24.6314V66.4725H23.0879V63.5879H24.6314Z" fill="#7A8683"/>
</g>
<mask id="mask16_2001_1317" style="mask-type:luminance" maskUnits="userSpaceOnUse" x="0" y="-47" width="114" height="164">
<path d="M114 -46.4131H0V116.033H114V-46.4131Z" fill="white"/>
</mask>
<g mask="url(#mask16_2001_1317)">
<path d="M28.2858 66.0766C27.9909 66.3602 27.6539 66.5011 27.2747 66.5011C26.8706 66.5011 26.5259 66.3583 26.2405 66.0708C25.9552 65.7833 25.8135 65.436 25.8135 65.0289C25.8135 64.6217 25.9552 64.2744 26.2405 63.9869C26.5259 63.6994 26.8706 63.5547 27.2747 63.5547C27.6539 63.5547 28.012 63.711 28.3509 64.0216L28.0733 64.2763C27.8186 64.0486 27.5524 63.9329 27.2747 63.9329C26.9759 63.9329 26.7193 64.039 26.5067 64.2532C26.2942 64.4674 26.1869 64.7259 26.1869 65.0289C26.1869 65.3337 26.2942 65.5923 26.5067 65.8065C26.7193 66.0206 26.9759 66.1268 27.2747 66.1268C27.5332 66.1268 27.7458 66.0592 27.9162 65.9203V65.0501H28.2858V66.0766Z" fill="#7A8683"/>
</g>
<mask id="mask17_2001_1317" style="mask-type:luminance" maskUnits="userSpaceOnUse" x="0" y="-47" width="114" height="164">
<path d="M114 -46.4131H0V116.033H114V-46.4131Z" fill="white"/>
</mask>
<g mask="url(#mask17_2001_1317)">
<path d="M30.2847 65.5483H29.9457V66.4725H29.5742V63.5879H30.3862C30.616 63.6188 30.8114 63.7152 30.9703 63.8754C31.1599 64.0683 31.2556 64.298 31.2556 64.5681C31.2556 64.8402 31.1599 65.0717 30.9703 65.2647C30.8382 65.3978 30.7386 65.4711 30.6696 65.4885L31.3054 66.4745H30.8554L30.2847 65.5483ZM29.9457 63.9622V65.174H30.2847C30.4494 65.174 30.5911 65.1142 30.7079 64.9964C30.8248 64.8787 30.8841 64.734 30.8841 64.5662C30.8841 64.3983 30.8248 64.2574 30.7079 64.1397C30.5911 64.022 30.4494 63.9622 30.2847 63.9622H29.9457Z" fill="#7A8683"/>
</g>
<mask id="mask18_2001_1317" style="mask-type:luminance" maskUnits="userSpaceOnUse" x="0" y="-47" width="114" height="164">
<path d="M114 -46.4131H0V116.033H114V-46.4131Z" fill="white"/>
</mask>
<g mask="url(#mask18_2001_1317)">
<path d="M33.4675 63.5879L34.5093 66.4725H34.1148L33.7452 65.4518H32.9868L32.621 66.4725H32.2246L33.2664 63.5879H33.4675ZM33.6111 65.0794L33.366 64.4041L33.1228 65.0794H33.6111Z" fill="#7A8683"/>
</g>
<mask id="mask19_2001_1317" style="mask-type:luminance" maskUnits="userSpaceOnUse" x="0" y="-47" width="114" height="164">
<path d="M114 -46.4131H0V116.033H114V-46.4131Z" fill="white"/>
</mask>
<g mask="url(#mask19_2001_1317)">
<path d="M36.3309 63.9603V66.4725H35.9575V63.9603H35.291V63.5879H36.9973V63.9603H36.3309Z" fill="#7A8683"/>
</g>
<mask id="mask20_2001_1317" style="mask-type:luminance" maskUnits="userSpaceOnUse" x="0" y="-47" width="114" height="164">
<path d="M114 -46.4131H0V116.033H114V-46.4131Z" fill="white"/>
</mask>
<g mask="url(#mask20_2001_1317)">
<path d="M39.6324 63.5879V63.9603H38.4585V64.8421H39.6324V65.2164H38.4585V66.0982H39.6324V66.4725H38.0889V63.5879H39.6324Z" fill="#7A8683"/>
</g>
<mask id="mask21_2001_1317" style="mask-type:luminance" maskUnits="userSpaceOnUse" x="0" y="-47" width="114" height="164">
<path d="M114 -46.4131H0V116.033H114V-46.4131Z" fill="white"/>
</mask>
<g mask="url(#mask21_2001_1317)">
<path d="M41.1284 63.5879C41.5937 63.5898 41.9557 63.723 42.2161 63.9854C42.5015 64.2748 42.6432 64.624 42.6432 65.0292C42.6432 65.4364 42.5015 65.7856 42.2161 66.0731C41.9557 66.3355 41.5937 66.4687 41.1284 66.4725H40.8564V63.5879H41.1284ZM41.228 63.968V66.0944C41.5229 66.0944 41.7642 65.9979 41.9519 65.8069C42.1644 65.5927 42.2698 65.3341 42.2698 65.0292C42.2698 64.7263 42.1644 64.4678 41.9519 64.2517C41.7642 64.0626 41.5229 63.968 41.228 63.968Z" fill="#7A8683"/>
</g>
<mask id="mask22_2001_1317" style="mask-type:luminance" maskUnits="userSpaceOnUse" x="0" y="-47" width="114" height="164">
<path d="M114 -46.4131H0V116.033H114V-46.4131Z" fill="white"/>
</mask>
<g mask="url(#mask22_2001_1317)">
<path d="M45.8271 66.4725V63.5879H46.1968V66.0982H47.2213V66.4725H45.8271Z" fill="#7A8683"/>
</g>
<mask id="mask23_2001_1317" style="mask-type:luminance" maskUnits="userSpaceOnUse" x="0" y="-47" width="114" height="164">
<path d="M114 -46.4131H0V116.033H114V-46.4131Z" fill="white"/>
</mask>
<g mask="url(#mask23_2001_1317)">
<path d="M49.447 63.5879L50.4888 66.4725H50.0943L49.7266 65.4518H48.9682L48.6025 66.4725H48.2061L49.2479 63.5879H49.447ZM49.5926 65.0794L49.3474 64.4041L49.1042 65.0794H49.5926Z" fill="#7A8683"/>
</g>
<mask id="mask24_2001_1317" style="mask-type:luminance" maskUnits="userSpaceOnUse" x="0" y="-47" width="114" height="164">
<path d="M114 -46.4131H0V116.033H114V-46.4131Z" fill="white"/>
</mask>
<g mask="url(#mask24_2001_1317)">
<path d="M51.5801 63.5879H51.9171L53.0987 65.6467V63.5879H53.4722V66.4725H53.1466L51.9497 64.3886V66.4725H51.5801V63.5879Z" fill="#7A8683"/>
</g>
<mask id="mask25_2001_1317" style="mask-type:luminance" maskUnits="userSpaceOnUse" x="0" y="-47" width="114" height="164">
<path d="M114 -46.4131H0V116.033H114V-46.4131Z" fill="white"/>
</mask>
<g mask="url(#mask25_2001_1317)">
<path d="M57.1706 66.0766C56.8757 66.3602 56.5386 66.5011 56.1594 66.5011C55.7554 66.5011 55.4106 66.3583 55.1253 66.0708C54.84 65.7833 54.6982 65.436 54.6982 65.0289C54.6982 64.6217 54.84 64.2744 55.1253 63.9869C55.4106 63.6994 55.7554 63.5547 56.1594 63.5547C56.5386 63.5547 56.8967 63.711 57.2357 64.0216L56.958 64.2763C56.7033 64.0486 56.4371 63.9329 56.1594 63.9329C55.8607 63.9329 55.6041 64.039 55.3915 64.2532C55.1789 64.4674 55.0717 64.7259 55.0717 65.0289C55.0717 65.3337 55.1789 65.5923 55.3915 65.8065C55.6041 66.0206 55.8607 66.1268 56.1594 66.1268C56.418 66.1268 56.6305 66.0592 56.801 65.9203V65.0501H57.1706V66.0766Z" fill="#7A8683"/>
</g>
<mask id="mask26_2001_1317" style="mask-type:luminance" maskUnits="userSpaceOnUse" x="0" y="-47" width="114" height="164">
<path d="M114 -46.4131H0V116.033H114V-46.4131Z" fill="white"/>
</mask>
<g mask="url(#mask26_2001_1317)">
<path d="M60.0351 63.5879H60.4066V65.6197C60.374 65.8512 60.2802 66.048 60.1213 66.2082C59.9298 66.4011 59.6999 66.4976 59.4318 66.4976C59.1637 66.4976 58.9339 66.4011 58.7443 66.2101C58.5547 66.0191 58.459 65.7876 58.459 65.5174V63.5898H58.8305V65.5174C58.8305 65.6834 58.8899 65.8261 59.0067 65.9438C59.1235 66.0615 59.2652 66.1214 59.4318 66.1214C59.5984 66.1214 59.7402 66.0615 59.857 65.9438C59.9738 65.8261 60.0332 65.6834 60.0332 65.5155V63.5879H60.0351Z" fill="#7A8683"/>
</g>
<mask id="mask27_2001_1317" style="mask-type:luminance" maskUnits="userSpaceOnUse" x="0" y="-47" width="114" height="164">
<path d="M114 -46.4131H0V116.033H114V-46.4131Z" fill="white"/>
</mask>
<g mask="url(#mask27_2001_1317)">
<path d="M62.6687 63.5879L63.7105 66.4725H63.316L62.9483 65.4518H62.1899L61.8241 66.4725H61.4277L62.4695 63.5879H62.6687ZM62.8142 65.0794L62.5691 64.4041L62.3259 65.0794H62.8142Z" fill="#7A8683"/>
</g>
<mask id="mask28_2001_1317" style="mask-type:luminance" maskUnits="userSpaceOnUse" x="0" y="-47" width="114" height="164">
<path d="M114 -46.4131H0V116.033H114V-46.4131Z" fill="white"/>
</mask>
<g mask="url(#mask28_2001_1317)">
<path d="M67.1598 66.0766C66.8649 66.3602 66.5279 66.5011 66.1487 66.5011C65.7446 66.5011 65.3999 66.3583 65.1146 66.0708C64.8292 65.7833 64.6875 65.436 64.6875 65.0289C64.6875 64.6217 64.8292 64.2744 65.1146 63.9869C65.3999 63.6994 65.7446 63.5547 66.1487 63.5547C66.526 63.5547 66.886 63.711 67.225 64.0216L66.9473 64.2763C66.6926 64.0486 66.4264 63.9329 66.1487 63.9329C65.8499 63.9329 65.5933 64.039 65.3808 64.2532C65.1682 64.4674 65.0609 64.7259 65.0609 65.0289C65.0609 65.3337 65.1663 65.5923 65.3808 65.8065C65.5933 66.0206 65.8499 66.1268 66.1487 66.1268C66.4072 66.1268 66.6198 66.0592 66.7902 65.9203V65.0501H67.1618V66.0766H67.1598Z" fill="#7A8683"/>
</g>
<mask id="mask29_2001_1317" style="mask-type:luminance" maskUnits="userSpaceOnUse" x="0" y="-47" width="114" height="164">
<path d="M114 -46.4131H0V116.033H114V-46.4131Z" fill="white"/>
</mask>
<g mask="url(#mask29_2001_1317)">
<path d="M69.9918 63.5879V63.9603H68.8198V64.8421H69.9918V65.2164H68.8198V66.0982H69.9918V66.4725H68.4482V63.5879H69.9918Z" fill="#7A8683"/>
</g>
<mask id="mask30_2001_1317" style="mask-type:luminance" maskUnits="userSpaceOnUse" x="0" y="-47" width="114" height="164">
<path d="M114 -46.4131H0V116.033H114V-46.4131Z" fill="white"/>
</mask>
<g mask="url(#mask30_2001_1317)">
<path d="M73.9448 64.9922C73.7419 64.9247 73.5772 64.8262 73.4527 64.6989C73.3263 64.5716 73.2631 64.4153 73.2631 64.2281C73.2631 64.0448 73.3282 63.8866 73.4584 63.7534C73.5886 63.6203 73.7476 63.5547 73.9334 63.5547C74.1172 63.5547 74.2742 63.6203 74.4064 63.7515C74.4811 63.8229 74.5423 63.9387 74.5921 64.095L74.2551 64.2281C74.2149 64.1181 74.1785 64.0448 74.144 64.012C74.0846 63.9541 74.0157 63.9252 73.9334 63.9252C73.8491 63.9252 73.7782 63.9541 73.7208 64.012C73.6614 64.0699 73.6327 64.1413 73.6327 64.2262C73.6327 64.3111 73.6614 64.3825 73.7208 64.4403C73.7859 64.506 73.8778 64.5658 73.9927 64.6198C74.2168 64.6931 74.4083 64.8089 74.5634 64.9652C74.7396 65.1388 74.8258 65.3511 74.8258 65.6C74.8258 65.8489 74.7377 66.0612 74.5634 66.2367C74.3891 66.4123 74.1785 66.5011 73.9334 66.5011C73.6863 66.5011 73.4757 66.4123 73.3014 66.2367C73.1616 66.0959 73.0735 65.9029 73.0371 65.654L73.3971 65.5228C73.4201 65.7351 73.4757 65.8875 73.5638 65.9763C73.6672 66.0804 73.7897 66.1306 73.9334 66.1306C74.077 66.1306 74.2015 66.0785 74.303 65.9763C74.4064 65.8721 74.4562 65.7486 74.4562 65.6019C74.4562 65.4572 74.4045 65.3318 74.303 65.2295C74.2072 65.1292 74.0866 65.0501 73.9448 64.9922Z" fill="#7A8683"/>
</g>
<mask id="mask31_2001_1317" style="mask-type:luminance" maskUnits="userSpaceOnUse" x="0" y="-47" width="114" height="164">
<path d="M114 -46.4131H0V116.033H114V-46.4131Z" fill="white"/>
</mask>
<g mask="url(#mask31_2001_1317)">
<path d="M78.378 63.981C78.6634 64.2685 78.807 64.6178 78.807 65.0249C78.807 65.432 78.6634 65.7813 78.378 66.0688C78.0927 66.3563 77.7461 66.501 77.342 66.501C76.9379 66.501 76.5913 66.3563 76.3059 66.0688C76.0206 65.7813 75.877 65.432 75.877 65.0249C75.877 64.6178 76.0206 64.2685 76.3059 63.981C76.5913 63.6916 76.9379 63.5488 77.342 63.5488C77.7461 63.5488 78.0908 63.6935 78.378 63.981ZM77.342 63.9251C77.0394 63.9251 76.7828 64.0331 76.5702 64.2473C76.3576 64.4615 76.2504 64.722 76.2504 65.0249C76.2504 65.3298 76.3576 65.5883 76.5702 65.8045C76.7828 66.0206 77.0413 66.1267 77.342 66.1267C77.6446 66.1267 77.9012 66.0186 78.1138 65.8045C78.3263 65.5903 78.4336 65.3298 78.4336 65.0249C78.4336 64.72 78.3263 64.4615 78.1138 64.2473C77.9012 64.0331 77.6426 63.9251 77.342 63.9251Z" fill="#7A8683"/>
</g>
<mask id="mask32_2001_1317" style="mask-type:luminance" maskUnits="userSpaceOnUse" x="0" y="-47" width="114" height="164">
<path d="M114 -46.4131H0V116.033H114V-46.4131Z" fill="white"/>
</mask>
<g mask="url(#mask32_2001_1317)">
<path d="M80.0342 66.4725V63.5879H80.4038V66.0982H81.4283V66.4725H80.0342Z" fill="#7A8683"/>
</g>
<mask id="mask33_2001_1317" style="mask-type:luminance" maskUnits="userSpaceOnUse" x="0" y="-47" width="114" height="164">
<path d="M114 -46.4131H0V116.033H114V-46.4131Z" fill="white"/>
</mask>
<g mask="url(#mask33_2001_1317)">
<path d="M84.1025 63.5879H84.474V65.6197C84.4414 65.8512 84.3476 66.048 84.1886 66.2082C83.9971 66.4011 83.7673 66.4976 83.4992 66.4976C83.2311 66.4976 83.0013 66.4011 82.8117 66.2101C82.6221 66.0191 82.5264 65.7876 82.5264 65.5174V63.5898H82.8979V65.5174C82.8979 65.6834 82.9573 65.8261 83.0741 65.9438C83.1909 66.0615 83.3326 66.1214 83.4992 66.1214C83.6658 66.1214 83.8075 66.0615 83.9244 65.9438C84.0412 65.8261 84.1006 65.6834 84.1006 65.5155V63.5879H84.1025Z" fill="#7A8683"/>
</g>
<mask id="mask34_2001_1317" style="mask-type:luminance" maskUnits="userSpaceOnUse" x="0" y="-47" width="114" height="164">
<path d="M114 -46.4131H0V116.033H114V-46.4131Z" fill="white"/>
</mask>
<g mask="url(#mask34_2001_1317)">
<path d="M86.6053 63.9603V66.4725H86.2319V63.9603H85.5654V63.5879H87.2718V63.9603H86.6053Z" fill="#7A8683"/>
</g>
<mask id="mask35_2001_1317" style="mask-type:luminance" maskUnits="userSpaceOnUse" x="0" y="-47" width="114" height="164">
<path d="M114 -46.4131H0V116.033H114V-46.4131Z" fill="white"/>
</mask>
<g mask="url(#mask35_2001_1317)">
<path d="M88.769 63.5879H88.3994V66.4725H88.769V63.5879Z" fill="#7A8683"/>
</g>
<mask id="mask36_2001_1317" style="mask-type:luminance" maskUnits="userSpaceOnUse" x="0" y="-47" width="114" height="164">
<path d="M114 -46.4131H0V116.033H114V-46.4131Z" fill="white"/>
</mask>
<g mask="url(#mask36_2001_1317)">
<path d="M92.5343 63.982C92.8196 64.2695 92.9633 64.6188 92.9633 65.0259C92.9633 65.433 92.8196 65.7823 92.5343 66.0698C92.2489 66.3573 91.9023 66.502 91.4982 66.502C91.0941 66.502 90.7475 66.3573 90.4622 66.0698C90.1768 65.7823 90.0332 65.433 90.0332 65.0259C90.0332 64.6188 90.1768 64.2695 90.4622 63.982C90.7475 63.6926 91.0941 63.5498 91.4982 63.5498C91.9023 63.5498 92.2489 63.6945 92.5343 63.982ZM91.4982 63.9261C91.1956 63.9261 90.939 64.0341 90.7265 64.2483C90.5139 64.4625 90.4066 64.723 90.4066 65.0259C90.4066 65.3308 90.5139 65.5893 90.7265 65.8054C90.939 66.0215 91.1976 66.1277 91.4982 66.1277C91.8008 66.1277 92.0574 66.0196 92.27 65.8054C92.4826 65.5913 92.5898 65.3308 92.5898 65.0259C92.5898 64.721 92.4826 64.4625 92.27 64.2483C92.0574 64.0341 91.8008 63.9261 91.4982 63.9261Z" fill="#7A8683"/>
</g>
<mask id="mask37_2001_1317" style="mask-type:luminance" maskUnits="userSpaceOnUse" x="0" y="-47" width="114" height="164">
<path d="M114 -46.4131H0V116.033H114V-46.4131Z" fill="white"/>
</mask>
<g mask="url(#mask37_2001_1317)">
<path d="M94.1904 63.5879H94.5294L95.711 65.6467V63.5879H96.0825V66.4725H95.7589L94.562 64.3886V66.4725H94.1904V63.5879Z" fill="#7A8683"/>
</g>
<mask id="mask38_2001_1317" style="mask-type:luminance" maskUnits="userSpaceOnUse" x="0" y="-47" width="114" height="164">
<path d="M114 -46.4131H0V116.033H114V-46.4131Z" fill="white"/>
</mask>
<g mask="url(#mask38_2001_1317)">
<path d="M98.0825 64.9922C97.8795 64.9247 97.7148 64.8262 97.5904 64.6989C97.464 64.5716 97.4008 64.4153 97.4008 64.2281C97.4008 64.0448 97.4659 63.8866 97.5961 63.7534C97.7263 63.6203 97.8853 63.5547 98.071 63.5547C98.2549 63.5547 98.4119 63.6203 98.5441 63.7515C98.6188 63.8229 98.68 63.9387 98.7298 64.095L98.3928 64.2281C98.3526 64.1181 98.3143 64.0448 98.2817 64.012C98.2223 63.9541 98.1534 63.9252 98.071 63.9252C97.9868 63.9252 97.9159 63.9541 97.8585 64.012C97.7991 64.0699 97.7704 64.1413 97.7704 64.2262C97.7704 64.3111 97.7991 64.3825 97.8585 64.4403C97.9236 64.506 98.0155 64.5658 98.1304 64.6198C98.3545 64.6931 98.546 64.8089 98.7011 64.9652C98.8773 65.1388 98.9635 65.3511 98.9635 65.6C98.9635 65.8489 98.8754 66.0612 98.7011 66.2367C98.5268 66.4123 98.3162 66.5011 98.071 66.5011C97.824 66.5011 97.6133 66.4123 97.4391 66.2367C97.2993 66.0959 97.2112 65.9029 97.1748 65.654L97.5348 65.5228C97.5578 65.7351 97.6134 65.8875 97.7014 65.9763C97.8049 66.0804 97.9274 66.1306 98.071 66.1306C98.2147 66.1306 98.3392 66.0785 98.4407 65.9763C98.5441 65.8721 98.5939 65.7486 98.5939 65.6019C98.5939 65.4572 98.5422 65.3318 98.4407 65.2295C98.3449 65.1292 98.2243 65.0501 98.0825 64.9922Z" fill="#7A8683"/>
</g>
</g>
<defs>
<clipPath id="clip0_2001_1317">
<rect width="114" height="70" fill="white"/>
</clipPath>
</defs>
</svg>
