<svg width="240" height="70" viewBox="0 0 240 70" fill="none" xmlns="http://www.w3.org/2000/svg">
<g clip-path="url(#clip0_2001_1525)">
<path d="M0 16.2754C14.256 16.2754 28.512 16.2754 43.2 16.2754C43.222 22.7003 43.2411 29.1251 43.2527 35.5501C43.2576 37.7376 43.2641 39.9252 43.2724 42.1127C43.284 45.2496 43.2895 48.3863 43.2938 51.5232C43.2987 52.5077 43.3037 53.4923 43.3088 54.5067C43.3088 55.4123 43.3089 56.3179 43.309 57.251C43.3111 58.0525 43.3133 58.854 43.3154 59.6798C43.2 61.5129 43.2 61.5129 42.24 62.4754C40.9137 62.5647 39.5828 62.5885 38.2535 62.5847C37.396 62.5845 36.5386 62.5844 35.6551 62.5843C34.748 62.5794 33.8409 62.5745 32.9062 62.5694C32.0769 62.5684 31.2475 62.5674 30.3929 62.5664C27.2819 62.5614 24.171 62.548 21.06 62.5355C14.1102 62.5157 7.1604 62.4958 0 62.4754C0 47.2294 0 31.9834 0 16.2754ZM12.48 22.0504C13.3512 23.2613 14.2224 24.4723 15.12 25.7199C15.8551 26.7417 15.8551 26.7417 16.605 27.784C18.2638 29.779 19.9539 31.1689 22.08 32.6379C23.5229 31.0564 24.9622 29.4717 26.4 27.8855C27.2019 27.0034 28.0038 26.1212 28.83 25.2124C30.8244 23.3752 30.8244 23.3752 30.72 22.0504C24.7008 22.0504 18.6816 22.0504 12.48 22.0504ZM5.76 26.8629C5.76 36.7093 5.76 46.5556 5.76 56.7004C6.3936 56.7004 7.0272 56.7004 7.68 56.7004C7.68 55.1123 7.68 53.5241 7.68 51.8879C10.5312 51.8879 13.3824 51.8879 16.32 51.8879C16.6368 51.2526 16.9536 50.6174 17.28 49.9629C16.6674 49.2879 16.0549 48.613 15.4238 47.9176C7.54503 38.8476 7.54503 38.8476 7.68 31.6754C8.3928 32.4099 9.1056 33.1444 9.84 33.9012C11.9293 35.9483 13.9408 37.6968 16.32 39.3754C16.6368 38.4225 16.9536 37.4696 17.28 36.4879C16.0846 34.244 16.0846 34.244 14.28 32.0363C13.7033 31.2696 13.1267 30.5028 12.5325 29.7128C10.4154 27.35 10.4154 27.35 5.76 26.8629ZM33.6 26.8629C33.2832 27.8158 32.9664 28.7686 32.64 29.7504C32.0064 29.7504 31.3728 29.7504 30.72 29.7504C26.9721 33.4384 26.9721 33.4384 25.62 38.2926C25.719 38.9675 25.818 39.6425 25.92 40.3379C26.613 39.6034 27.306 38.8689 28.02 38.1121C30.43 35.8032 32.6094 34.2221 35.52 32.6379C33.72 39.977 33.72 39.977 32.64 43.2254C32.0064 43.2254 31.3728 43.2254 30.72 43.2254C26.9437 46.9579 26.9437 46.9579 25.92 51.8879C29.088 51.8879 32.256 51.8879 35.52 51.8879C35.52 53.476 35.52 55.0641 35.52 56.7004C36.1536 56.7004 36.7872 56.7004 37.44 56.7004C37.44 46.854 37.44 37.0076 37.44 26.8629C36.1728 26.8629 34.9056 26.8629 33.6 26.8629ZM21.12 41.3004C20.1696 42.7297 20.1696 42.7297 19.2 44.1879C20.6256 45.1408 20.6256 45.1408 22.08 46.1129C22.3968 45.16 22.7136 44.2071 23.04 43.2254C22.4064 42.5901 21.7728 41.9549 21.12 41.3004ZM21.12 54.7754C20.8032 55.4106 20.4864 56.0459 20.16 56.7004C21.1104 56.3828 22.0608 56.0651 23.04 55.7379C22.4064 55.4203 21.7728 55.1026 21.12 54.7754Z" fill="#7A8582"/>
<path d="M52.7995 22.0498C54.7003 22.0498 56.6011 22.0498 58.5595 22.0498C60.4603 25.5437 62.3611 29.0376 64.3195 32.6373C67.0217 31.2827 67.4633 29.5038 68.7595 26.8021C69.1876 25.9175 69.6158 25.0329 70.057 24.1214C70.3812 23.4378 70.7054 22.7542 71.0395 22.0498C73.2571 22.0498 75.4747 22.0498 77.7595 22.0498C77.7595 29.0376 77.7595 36.0253 77.7595 43.2248C76.1755 43.2248 74.5915 43.2248 72.9595 43.2248C72.3259 41.3191 71.6923 39.4133 71.0395 37.4498C70.5049 38.4027 69.9703 39.3556 69.4195 40.3373C67.1995 43.2248 67.1995 43.2248 64.7395 43.8865C62.3995 43.2248 62.3995 43.2248 60.7195 40.9389C60.1255 39.6882 60.1255 39.6882 59.5195 38.4123C59.2027 37.7771 58.8859 37.1418 58.5595 36.4873C57.9259 38.7107 57.2923 40.9341 56.6395 43.2248C55.0555 43.2248 53.4715 43.2248 51.8395 43.2248C51.8117 39.8761 51.7946 36.5275 51.7795 33.1787C51.7714 32.2227 51.7634 31.2668 51.7551 30.2818C51.752 29.373 51.7489 28.4642 51.7457 27.5278C51.7407 26.686 51.7356 25.8443 51.7305 24.977C51.8395 23.0123 51.8395 23.0123 52.7995 22.0498Z" fill="#7A8582"/>
<path d="M114.24 22.0502C117.24 23.494 117.24 23.494 119.04 24.9377C118.74 26.8025 118.74 26.8025 118.08 28.7877C117.13 29.1053 116.179 29.423 115.2 29.7502C114.626 29.4326 114.052 29.115 113.46 28.7877C110.56 27.4586 108.638 28.0432 105.6 28.7877C104.241 29.9275 104.241 29.9275 104.58 33.1791C104.6 34.2709 104.62 35.3628 104.64 36.4877C105.59 36.4877 106.541 36.4877 107.52 36.4877C107.52 34.582 107.52 32.6762 107.52 30.7127C111.638 30.7127 115.757 30.7127 120 30.7127C120.094 39.6421 120.094 39.6421 120 42.2627C117.9 44.3686 113.048 43.5769 110.146 43.6064C106.449 43.5397 103.798 43.3616 100.92 40.9393C97.8659 37.1566 97.5445 34.7666 97.5751 30.0021C98.1222 26.5497 100.034 25.0644 102.72 23.0127C106.25 21.2434 110.379 21.6856 114.24 22.0502Z" fill="#7A8582"/>
<path d="M169.92 22.0498C181.086 22.0498 181.086 22.0498 184.32 23.9748C186.24 26.8623 186.24 26.8623 185.94 29.6896C185.28 32.6373 185.28 32.6373 184.56 34.6225C184.195 37.4574 185.68 38.983 187.2 41.2998C187.2 41.9351 187.2 42.5703 187.2 43.2248C184.62 43.5857 184.62 43.5857 181.44 43.2248C179.459 41.4692 178.185 39.637 176.64 37.4498C176.006 39.3556 175.373 41.2613 174.72 43.2248C173.136 43.2248 171.552 43.2248 169.92 43.2248C169.92 36.2371 169.92 29.2493 169.92 22.0498ZM175.68 26.8623C175.68 27.8152 175.68 28.7681 175.68 29.7498C176.947 29.4322 178.214 29.1146 179.52 28.7873C179.203 28.1521 178.886 27.5168 178.56 26.8623C177.61 26.8623 176.659 26.8623 175.68 26.8623Z" fill="#7A8582"/>
<path d="M131.52 22.0498C133.421 22.0498 135.321 22.0498 137.28 22.0498C138.522 24.515 139.762 26.9816 141 29.449C141.35 30.1432 141.7 30.8374 142.061 31.5526C143.825 35.0736 145.499 38.5674 146.88 42.2623C145.92 43.2248 145.92 43.2248 143.64 43.5256C142.808 43.4263 141.977 43.3271 141.12 43.2248C140.704 42.5896 140.288 41.9543 139.86 41.2998C138.451 39.1885 138.451 39.1885 136.357 39.1191C134.423 39.1328 132.49 39.2479 130.56 39.3748C129.926 40.6453 129.293 41.9158 128.64 43.2248C126.739 43.2248 124.838 43.2248 122.88 43.2248C123.402 37.9564 125.332 34.001 127.74 29.3889C128.283 28.3262 128.283 28.3262 128.837 27.242C129.724 25.5077 130.621 23.7782 131.52 22.0498ZM134.4 30.7123C134.083 31.6652 133.766 32.6181 133.44 33.5998C134.39 33.2822 135.341 32.9646 136.32 32.6373C135.686 32.0021 135.053 31.3668 134.4 30.7123Z" fill="#7A8582"/>
<path d="M188.16 22.0498C190.061 22.0498 191.962 22.0498 193.92 22.0498C194.237 27.1318 194.554 32.2138 194.88 37.4498C196.148 37.4498 197.415 37.4498 198.72 37.4498C199.037 32.3678 199.354 27.2858 199.68 22.0498C201.264 22.0498 202.848 22.0498 204.48 22.0498C206.499 24.0736 205.706 28.2333 205.74 31.0131C205.768 31.7569 205.796 32.5007 205.825 33.2671C205.865 36.8384 205.846 38.7779 203.802 41.7886C201.255 43.45 199.822 43.7708 196.8 43.7662C195.989 43.7873 195.177 43.8084 194.34 43.8301C192 43.2248 192 43.2248 189.795 41.3148C187.587 37.3952 187.729 34.342 187.92 29.9303C187.938 29.1716 187.955 28.4129 187.973 27.6312C188.018 25.7702 188.087 23.9099 188.16 22.0498Z" fill="#7A8582"/>
<path d="M84.6331 21.9561C86.4875 21.9728 86.4875 21.9728 88.3793 21.9899C89.6181 21.9986 90.8568 22.0073 92.1331 22.0162C93.0921 22.0274 94.0512 22.0385 95.0393 22.05C95.0393 23.9558 95.0393 25.8615 95.0393 27.825C92.5049 27.825 89.9705 27.825 87.3593 27.825C87.3593 28.4603 87.3593 29.0955 87.3593 29.75C89.2601 29.75 91.1609 29.75 93.1193 29.75C93.1193 31.3382 93.1193 32.9263 93.1193 34.5625C91.2185 34.5625 89.3177 34.5625 87.3593 34.5625C87.3593 35.5154 87.3593 36.4683 87.3593 37.45C89.8937 37.45 92.4281 37.45 95.0393 37.45C95.0393 39.3558 95.0393 41.2615 95.0393 43.225C92.9996 43.2769 90.9595 43.3143 88.9193 43.3454C87.7833 43.3677 86.6473 43.39 85.4768 43.413C82.5593 43.225 82.5593 43.225 80.6393 41.3C80.4061 39.4181 80.4061 39.4181 80.4181 37.1455C80.4199 36.331 80.4218 35.5164 80.4237 34.6772C80.4354 33.8255 80.4472 32.9737 80.4593 32.0961C80.4599 31.2407 80.4606 30.3852 80.4612 29.5038C80.512 22.0837 80.512 22.0837 84.6331 21.9561Z" fill="#7A8582"/>
<path d="M0 16.2754C14.256 16.2754 28.512 16.2754 43.2 16.2754C43.2 18.1811 43.2 20.0869 43.2 22.0504C28.944 22.0504 14.688 22.0504 0 22.0504C0 20.1446 0 18.2389 0 16.2754Z" fill="#7A8582"/>
<path d="M0 56.7002C14.256 56.7002 28.512 56.7002 43.2 56.7002C43.2 58.2883 43.2 59.8764 43.2 61.5127C42.24 62.4752 42.24 62.4752 40.521 62.5909C39.7727 62.5888 39.0244 62.5867 38.2535 62.5845C37.4079 62.5844 36.5623 62.5843 35.6911 62.5842C34.7721 62.5793 33.8531 62.5743 32.9062 62.5692C31.97 62.5678 31.0338 62.5665 30.0693 62.5651C27.0661 62.5597 24.0631 62.5476 21.06 62.5354C19.0294 62.5305 16.9987 62.5261 14.9681 62.5222C9.97873 62.5116 4.98937 62.4954 0 62.4752C0 60.5694 0 58.6637 0 56.7002Z" fill="#7A8582"/>
<path d="M218.88 22.0505C221.22 23.4942 221.22 23.4942 222.72 24.9379C222.404 25.8908 222.087 26.8437 221.76 27.8254C220.176 28.1431 218.592 28.4607 216.96 28.7879C217.911 29.2842 218.861 29.7805 219.84 30.2919C222.72 32.6379 222.72 32.6379 223.32 36.0067C222.72 39.3754 222.72 39.3754 221.28 41.7215C217.918 43.8284 215.069 43.917 211.2 43.2254C208.8 41.7817 208.8 41.7817 207.36 40.3379C207.677 39.0674 207.994 37.7969 208.32 36.4879C210.822 35.5922 211.817 35.3819 214.32 36.4278C214.875 36.7653 215.429 37.1027 216 37.4504C214.557 34.5562 212.12 34.0022 209.28 32.6379C208.32 31.6754 208.32 31.6754 208.02 28.427C208.32 24.9379 208.32 24.9379 209.82 23.0731C213.038 21.6668 215.405 21.6771 218.88 22.0505Z" fill="#7A8582"/>
<path d="M223.681 22.0498C229.066 22.0498 234.452 22.0498 240.001 22.0498C240.001 23.9556 240.001 25.8613 240.001 27.8248C238.417 27.8248 236.833 27.8248 235.201 27.8248C235.212 28.8558 235.223 29.8869 235.234 30.9492C235.243 32.2939 235.252 33.6387 235.261 34.9834C235.269 35.6639 235.277 36.3445 235.285 37.0456C235.293 38.7847 235.251 40.5239 235.201 42.2623C234.241 43.2248 234.241 43.2248 231.781 43.285C231.008 43.2651 230.236 43.2453 229.441 43.2248C227.999 40.3343 228.392 37.6513 228.421 34.442C228.429 33.2087 228.438 31.9754 228.447 30.7048C228.458 29.7544 228.469 28.804 228.481 27.8248C226.897 27.8248 225.313 27.8248 223.681 27.8248C223.681 25.9191 223.681 24.0133 223.681 22.0498Z" fill="#7A8582"/>
<path d="M152.64 22.0505C155.18 22.0246 157.72 22.0055 160.26 21.9903C160.984 21.9823 161.709 21.9742 162.455 21.9659C164.304 21.9576 166.152 22.0002 168 22.0505C168.96 23.013 168.96 23.013 169.02 25.4794C169 26.2536 168.98 27.0278 168.96 27.8255C167.376 27.8255 165.792 27.8255 164.16 27.8255C164.171 28.8565 164.182 29.8876 164.193 30.9498C164.202 32.2946 164.211 33.6393 164.22 34.9841C164.228 35.6646 164.236 36.3451 164.244 37.0463C164.252 38.7854 164.21 40.5246 164.16 42.263C163.2 43.2255 163.2 43.2255 160.8 43.3458C158.4 43.2255 158.4 43.2255 157.44 42.263C157.369 39.8274 157.351 37.4187 157.38 34.9841C157.384 34.2998 157.388 33.6156 157.393 32.9106C157.404 31.2155 157.421 29.5205 157.44 27.8255C155.856 27.8255 154.272 27.8255 152.64 27.8255C152.64 25.9197 152.64 24.014 152.64 22.0505Z" fill="#7A8582"/>
<path d="M119.04 48.0379C120.379 50.2495 121.032 51.3867 120.66 53.9933C120 55.7379 120 55.7379 119.04 56.7004C116.22 56.941 116.22 56.941 113.28 56.7004C111.36 53.8129 111.36 53.8129 111.6 51.2863C111.838 50.5319 112.075 49.7776 112.32 49.0004C114.684 47.8151 116.429 47.969 119.04 48.0379ZM115.2 50.9254C114.883 51.8782 114.567 52.8311 114.24 53.8129C114.874 53.8129 115.507 53.8129 116.16 53.8129C116.16 53.1776 116.16 52.5424 116.16 51.8879C116.794 51.5702 117.427 51.2526 118.08 50.9254C117.13 50.9254 116.179 50.9254 115.2 50.9254Z" fill="#7A8582"/>
<path d="M149.281 47.7969C151.681 48.0375 151.681 48.0375 153.601 49.9625C153.721 52.9703 153.721 52.9703 153.601 55.7375C150.361 56.3391 150.361 56.3391 146.881 56.7C144.961 54.775 144.961 54.775 144.721 52.3688C145.056 49.0056 145.926 48.1332 149.281 47.7969ZM148.801 49.9625C148.484 51.233 148.167 52.5035 147.841 53.8125C148.791 53.8125 149.742 53.8125 150.721 53.8125C150.721 52.8596 150.721 51.9068 150.721 50.925C150.087 50.6074 149.454 50.2898 148.801 49.9625Z" fill="#7A8582"/>
<path d="M129.601 48.0371C131.501 48.0371 133.402 48.0371 135.361 48.0371C136.18 51.0143 136.321 53.6132 136.321 56.6996C134.103 56.6996 131.885 56.6996 129.601 56.6996C129.601 53.841 129.601 50.9824 129.601 48.0371Z" fill="#7A8582"/>
<path d="M178.56 48.0371C180.46 48.0371 182.361 48.0371 184.32 48.0371C184.636 49.3076 184.953 50.5781 185.28 51.8871C183.379 52.84 183.379 52.84 181.44 53.8121C181.44 54.765 181.44 55.7179 181.44 56.6996C180.489 56.6996 179.539 56.6996 178.56 56.6996C178.56 53.841 178.56 50.9824 178.56 48.0371Z" fill="#7A8582"/>
<path d="M163.2 48.0371C163.834 48.0371 164.467 48.0371 165.12 48.0371C165.12 49.9429 165.12 51.8486 165.12 53.8121C165.754 53.8121 166.387 53.8121 167.04 53.8121C167.04 51.9064 167.04 50.0006 167.04 48.0371C167.674 48.0371 168.307 48.0371 168.96 48.0371C168.96 50.5781 168.96 53.1191 168.96 55.7371C167.37 56.105 165.769 56.4243 164.16 56.6996C163.2 55.7371 163.2 55.7371 163.106 53.9587C163.138 51.9849 163.169 50.011 163.2 48.0371Z" fill="#7A8582"/>
</g>
<defs>
<clipPath id="clip0_2001_1525">
<rect width="240" height="70" fill="white"/>
</clipPath>
</defs>
</svg>
