<svg width="89" height="70" viewBox="0 0 89 70" fill="none" xmlns="http://www.w3.org/2000/svg">
<path d="M1.18652 1.77246C13.6198 1.77246 26.0531 1.77246 38.8632 1.77246C40.7233 6.64588 42.5834 11.5193 44.4999 16.5404C45.9359 21.6171 45.9359 21.6171 48.6532 26.8779C49.4093 24.9651 50.1642 23.0517 50.9184 21.1381C51.1751 20.4871 51.4321 19.8362 51.6893 19.1854C52.0589 18.2501 52.4276 17.3145 52.7961 16.3789C52.9114 16.0878 53.0266 15.7967 53.1454 15.4968C53.3057 15.0889 53.3057 15.0889 53.4693 14.6728C53.5635 14.434 53.6577 14.1953 53.7548 13.9493C53.9755 13.3403 54.1453 12.7407 54.2899 12.11C54.4857 12.11 54.6815 12.11 54.8832 12.11C56.9046 17.0164 58.8932 21.9325 60.8165 26.8779C61.4669 26.2305 61.6567 25.7746 61.9899 24.9281C62.1018 24.6462 62.2136 24.3643 62.3289 24.0739C62.4482 23.7687 62.5675 23.4635 62.6904 23.149C62.814 22.8366 62.9375 22.5242 63.0648 22.2023C63.4603 21.2016 63.8536 20.2001 64.2467 19.1986C64.6414 18.1973 65.0365 17.1961 65.4318 16.195C65.6779 15.5713 65.9236 14.9474 66.1687 14.3233C66.2796 14.0414 66.3906 13.7596 66.5048 13.4691C66.6025 13.2204 66.7002 12.9716 66.8009 12.7153C67.0465 12.11 67.0465 12.11 67.3432 11.5193C68.1925 11.2257 68.9895 11.184 69.8834 11.187C70.1102 11.1863 70.337 11.1855 70.5706 11.1847C71.1999 11.2239 71.1999 11.2239 72.0899 11.5193C71.9114 12.5189 71.6607 13.4204 71.2855 14.3637C71.1809 14.6284 71.0764 14.8931 70.9686 15.1658C70.8545 15.4511 70.7404 15.7364 70.6227 16.0304C70.5034 16.3319 70.384 16.6333 70.261 16.9439C70.004 17.5926 69.7464 18.241 69.4884 18.8893C68.8118 20.5894 68.1391 22.291 67.466 23.9924C67.3305 24.3347 67.1951 24.6769 67.0555 25.0295C65.775 28.2668 64.5154 31.5118 63.264 34.7603C63.1201 35.1338 63.1201 35.1338 62.9733 35.5147C62.4514 36.869 61.9303 38.2235 61.4099 39.5784C61.1162 39.5784 60.8225 39.5784 60.5199 39.5784C60.3428 39.1096 60.3428 39.1096 60.1621 38.6314C59.7177 37.4554 59.2724 36.2797 58.8268 35.104C58.6353 34.5983 58.444 34.0924 58.2529 33.5865C56.8912 28.8993 56.8912 28.8993 54.5865 24.8104C54.3802 25.3398 54.3802 25.3398 54.1696 25.8799C53.655 27.1996 53.1395 28.519 52.6237 29.8382C52.4014 30.4073 52.1793 30.9765 51.9574 31.5458C51.6369 32.3679 51.3156 33.1898 50.9941 34.0116C50.8475 34.3883 50.8475 34.3883 50.698 34.7727C50.0617 36.3961 49.3781 37.9922 48.6532 39.5784C48.4574 39.5784 48.2616 39.5784 48.0599 39.5784C47.9843 39.3703 47.9088 39.1622 47.8309 38.9478C46.1611 34.3585 44.4472 29.7892 42.6828 25.235C40.1937 18.8036 37.7497 12.355 35.3032 5.90748C25.3174 5.81001 15.3316 5.71255 5.04319 5.61212C5.04319 18.9653 5.04319 32.3185 5.04319 46.0763C15.8122 46.0763 26.5812 46.0763 37.6765 46.0763C39.1599 49.0298 39.1599 49.0298 39.1599 49.9159C26.6287 49.9159 14.0975 49.9159 1.18652 49.9159C1.18652 34.0286 1.18652 18.1412 1.18652 1.77246Z" fill="#7A8582"/>
<path d="M43.0165 1.77246C57.9952 1.77246 72.9739 1.77246 88.4065 1.77246C88.4065 17.6598 88.4065 33.5471 88.4065 49.9159C73.5257 49.9159 58.6449 49.9159 43.3131 49.9159C37.3798 36.6248 37.3798 36.6248 37.3798 35.7387C32.9743 35.7387 28.5688 35.7387 24.0298 35.7387C23.7361 36.6159 23.4424 37.4931 23.1398 38.3969C22.7724 39.2957 22.7724 39.2957 22.2498 39.8737C21.2543 40.0179 21.2543 40.0179 20.1175 39.966C19.7401 39.9527 19.3626 39.9394 18.9737 39.9256C18.6842 39.9085 18.3947 39.8914 18.0965 39.8737C17.9986 39.6788 17.9007 39.4839 17.7998 39.283C18.1321 38.4239 18.4861 37.5957 18.8683 36.7586C19.0409 36.373 19.0409 36.373 19.2171 35.9795C19.5955 35.1353 19.9771 34.2925 20.3586 33.4497C20.7509 32.5759 21.1424 31.7018 21.5339 30.8277C21.7961 30.2426 22.0585 29.6575 22.3213 29.0726C23.409 26.6501 24.4761 24.2195 25.5317 21.783C25.683 21.4341 25.8344 21.0852 25.9904 20.7257C26.282 20.0534 26.5735 19.381 26.8649 18.7086C27.5796 17.0616 28.2986 15.4165 29.0175 13.7714C29.1443 13.4812 29.2711 13.191 29.4017 12.892C29.6877 12.2375 29.9737 11.583 30.2598 10.9286C30.4556 10.9286 30.6514 10.9286 30.8531 10.9286C32.4534 14.2643 33.9839 17.625 35.4671 21.0138C36.0498 22.3451 36.6348 23.6753 37.2199 25.0054C37.3358 25.269 37.4517 25.5325 37.5711 25.804C38.563 28.0572 39.572 30.3024 40.5875 32.5451C41.8511 35.3404 43.1002 38.1415 44.3293 40.9519C44.5034 41.3499 44.6779 41.7478 44.8528 42.1455C45.0936 42.6934 45.3327 43.242 45.5717 43.7907C45.7088 44.1043 45.8458 44.4179 45.987 44.741C46.2798 45.4855 46.2798 45.4855 46.2798 46.0763C58.811 46.0763 71.3422 46.0763 84.2531 46.0763C84.2531 32.7231 84.2531 19.3699 84.2531 5.61212C71.0366 5.61212 57.8201 5.61212 44.2031 5.61212C43.0165 2.9539 43.0165 2.9539 43.0165 1.77246ZM30.5565 21.2661C29.317 23.5987 28.2382 25.991 27.1819 28.4101C27.0475 28.7174 26.9131 29.0247 26.7747 29.3413C26.1282 30.5783 26.1282 30.5783 25.8098 31.899C28.9426 31.899 32.0754 31.899 35.3031 31.899C34.7566 30.2668 34.2462 28.785 33.5475 27.2368C33.3108 26.7099 33.3108 26.7099 33.0694 26.1724C32.9055 25.8107 32.7415 25.449 32.5775 25.0873C32.4099 24.7153 32.2425 24.3432 32.0751 23.9711C31.6689 23.0689 31.2616 22.1673 30.8531 21.2661C30.7552 21.2661 30.6573 21.2661 30.5565 21.2661Z" fill="#7A8582"/>
<path d="M57.5537 58.1855C58.3369 58.283 59.1201 58.3805 59.927 58.4809C60.0093 58.8613 60.0915 59.2416 60.1762 59.6335C60.2847 60.1292 60.3932 60.625 60.5018 61.1207C60.5559 61.3718 60.6101 61.6229 60.6658 61.8816C60.7184 62.1205 60.771 62.3594 60.8252 62.6055C60.8733 62.8267 60.9215 63.0479 60.9711 63.2758C61.0681 63.8008 61.0681 63.8008 61.4104 64.0927C62.1446 61.3149 62.1446 61.3149 62.8937 58.4809C63.579 58.4809 64.2643 58.4809 64.9704 58.4809C65.6518 60.4295 66.218 62.394 66.7504 64.3881C67.2399 62.4387 67.7294 60.4893 68.2337 58.4809C69.0169 58.3834 69.8001 58.286 70.607 58.1855C69.7259 61.4995 68.8448 64.8134 67.937 68.2277C67.1538 68.2277 66.3706 68.2277 65.5637 68.2277C65.0742 66.4733 64.5847 64.7189 64.0804 62.9113C63.5203 64.0265 63.1906 65.0369 62.8566 66.2341C62.7518 66.6072 62.6471 66.9803 62.5391 67.3647C62.4603 67.6495 62.3815 67.9343 62.3004 68.2277C61.5172 68.2277 60.734 68.2277 59.927 68.2277C59.5877 66.9403 59.2497 65.6526 58.913 64.3645C58.7983 63.9264 58.6832 63.4883 58.5677 63.0504C58.4017 62.4209 58.2372 61.791 58.0729 61.1611C58.021 60.9653 57.9691 60.7696 57.9156 60.568C57.7023 59.7456 57.5537 59.0394 57.5537 58.1855Z" fill="#7A8582"/>
<path d="M80.0996 58.4815C81.5222 58.4358 81.5222 58.4358 82.9736 58.3892C83.418 58.369 83.418 58.369 83.8713 58.3484C85.2183 58.3275 85.8429 58.3421 86.9577 59.1599C87.6814 60.1943 87.6744 60.7886 87.5163 62.0258C87.2196 62.7457 87.2196 62.7457 86.9229 63.2072C87.0698 63.3047 87.2166 63.4022 87.3679 63.5026C87.9437 64.2668 87.9717 64.9237 87.9404 65.8643C87.7265 66.8577 87.1063 67.3254 86.3296 67.933C85.6329 68.2798 85.2207 68.2623 84.4453 68.2572C84.1042 68.2561 84.1042 68.2561 83.7562 68.2549C83.3229 68.2509 83.3229 68.2509 82.8809 68.2468C81.963 68.2407 81.0452 68.2346 80.0996 68.2283C80.0996 65.0119 80.0996 61.7954 80.0996 58.4815ZM82.1763 59.9583C82.1763 60.738 82.1763 61.5178 82.1763 62.3211C83.8962 62.3933 83.8962 62.3933 85.4396 61.7304C85.3417 61.2431 85.2438 60.7557 85.1429 60.2536C84.1639 60.1562 83.1849 60.0587 82.1763 59.9583ZM82.1763 63.7979C82.1763 64.6752 82.1763 65.5524 82.1763 66.4562C82.6583 66.4721 83.1404 66.4836 83.6225 66.4931C83.891 66.4999 84.1594 66.5068 84.436 66.5139C85.1987 66.528 85.1987 66.528 85.7363 65.8654C85.6408 64.9501 85.6408 64.9501 85.4396 64.0933C84.3627 63.9958 83.2858 63.8984 82.1763 63.7979Z" fill="#7A8582"/>
<path d="M42.127 58.1855C44.4766 58.1855 46.8262 58.1855 49.247 58.1855C49.247 58.8678 49.247 59.5501 49.247 60.2531C47.5827 60.2531 45.9184 60.2531 44.2036 60.2531C44.2036 60.8379 44.2036 61.4227 44.2036 62.0252C45.77 62.0252 47.3364 62.0252 48.9503 62.0252C48.9503 62.7075 48.9503 63.3898 48.9503 64.0927C47.3839 64.0927 45.8175 64.0927 44.2036 64.0927C44.2036 64.8725 44.2036 65.6522 44.2036 66.4556C45.9658 66.4556 47.728 66.4556 49.5436 66.4556C49.4457 67.0404 49.3478 67.6252 49.247 68.2277C46.8974 68.2277 44.5478 68.2277 42.127 68.2277C42.127 64.9138 42.127 61.5999 42.127 58.1855Z" fill="#7A8582"/>
<path d="M71.4961 58.4805C73.8457 58.4805 76.1953 58.4805 78.6161 58.4805C78.6161 59.0653 78.6161 59.6501 78.6161 60.2526C76.9518 60.2526 75.2875 60.2526 73.5728 60.2526C73.6707 60.8374 73.7686 61.4222 73.8694 62.0248C75.3379 62.0248 76.8064 62.0248 78.3194 62.0248C78.3194 62.7071 78.3194 63.3893 78.3194 64.0923C76.753 64.0923 75.1866 64.0923 73.5728 64.0923C73.5728 64.872 73.5728 65.6518 73.5728 66.4552C75.335 66.4552 77.0972 66.4552 78.9128 66.4552C78.8149 67.04 78.717 67.6248 78.6161 68.2273C76.2665 68.2273 73.9169 68.2273 71.4961 68.2273C71.4961 65.0108 71.4961 61.7944 71.4961 58.4805Z" fill="#7A8582"/>
<path d="M3.56021 58.1855C4.44131 58.1855 5.32241 58.1855 6.23021 58.1855C9.79021 67.1944 9.79021 67.1944 9.79021 68.2277C9.00701 68.2277 8.22381 68.2277 7.41687 68.2277C6.97632 67.2043 6.97632 67.2043 6.52687 66.1602C5.44997 66.0628 4.37308 65.9653 3.26354 65.8649C3.06774 66.6446 2.87194 67.4244 2.67021 68.2277C1.88701 68.2277 1.10381 68.2277 0.296875 68.2277C0.506842 67.0145 0.865305 65.895 1.27147 64.733C1.3369 64.545 1.40233 64.357 1.46974 64.1633C1.67739 63.5672 1.88638 62.9716 2.09542 62.3759C2.23708 61.9701 2.37865 61.5641 2.52014 61.1582C2.86581 60.1669 3.21269 59.1761 3.56021 58.1855ZM4.74687 60.5484C4.45317 61.718 4.15947 62.8877 3.85687 64.0927C4.88482 63.9465 4.88482 63.9465 5.93354 63.7974C5.63984 62.7252 5.34614 61.6531 5.04354 60.5484C4.94564 60.5484 4.84774 60.5484 4.74687 60.5484Z" fill="#7A8582"/>
<path d="M16.3166 58.1859C17.637 58.8313 18.3692 59.5124 18.9866 60.8442C18.9866 61.1366 18.9866 61.429 18.9866 61.7302C18.2034 61.7302 17.4202 61.7302 16.6133 61.7302C16.5521 61.5414 16.4909 61.3525 16.4279 61.158C16.0545 60.4565 16.0545 60.4565 15.1485 60.3088C14.2278 60.1962 14.2278 60.1962 13.35 60.5488C12.4963 61.825 12.6131 63.21 12.7566 64.6838C12.955 65.6302 12.955 65.6302 13.6466 66.1606C14.5497 66.2802 15.4115 66.2456 16.3166 66.1606C16.4145 65.7707 16.5124 65.3809 16.6133 64.9792C17.3965 64.9792 18.1797 64.9792 18.9866 64.9792C18.6948 66.2283 18.2887 67.1628 17.2368 67.9547C15.8056 68.5824 14.2688 68.4922 12.7566 68.2281C11.517 67.6214 10.8748 66.8356 10.2535 65.6253C9.88362 63.5385 9.8828 61.8457 10.9766 59.9581C12.6248 58.269 14.0093 57.9319 16.3166 58.1859Z" fill="#7A8582"/>
<path d="M31.7432 58.1855C32.5264 58.1855 33.3096 58.1855 34.1165 58.1855C34.8997 60.5248 35.6829 62.864 36.4898 65.2742C37.273 62.9349 38.0562 60.5957 38.8632 58.1855C39.6464 58.1855 40.4296 58.1855 41.2365 58.1855C41.0307 59.3766 40.6804 60.4679 40.2723 61.6052C40.1408 61.9723 40.0092 62.3393 39.8737 62.7175C39.8052 62.9067 39.7368 63.0959 39.6662 63.2909C39.4558 63.873 39.2475 64.4558 39.0393 65.0388C38.0116 67.8941 38.0116 67.8941 37.6765 68.2277C36.8842 68.2694 36.0969 68.2403 35.3032 68.2277C34.331 66.0334 33.4868 63.8072 32.6888 61.5453C32.5956 61.2826 32.5025 61.02 32.4065 60.7495C32.2772 60.3792 32.2772 60.3792 32.1453 60.0015C32.0677 59.7797 31.9902 59.5579 31.9103 59.3293C31.7432 58.7763 31.7432 58.7763 31.7432 58.1855Z" fill="#7A8582"/>
<path d="M53.9929 58.7764C54.6782 58.7764 55.3635 58.7764 56.0695 58.7764C56.0695 60.6283 56.0695 62.4802 56.0695 64.3882C56.4611 64.3882 56.8527 64.3882 57.2562 64.3882C57.1583 64.973 57.0604 65.5578 56.9595 66.1603C56.6658 66.1603 56.3721 66.1603 56.0695 66.1603C56.0695 66.8426 56.0695 67.5249 56.0695 68.2278C55.3842 68.2278 54.6989 68.2278 53.9929 68.2278C53.9929 67.643 53.9929 67.0582 53.9929 66.4557C53.5804 66.4289 53.5804 66.4289 53.1597 66.4015C52.8044 66.3767 52.4491 66.352 52.0831 66.3265C51.7286 66.3025 51.3741 66.2785 51.0088 66.2538C50.1362 66.1603 50.1362 66.1603 49.8395 65.865C49.7124 64.6481 49.9462 64.061 50.6728 63.0914C50.8454 62.8576 51.0181 62.6238 51.196 62.383C51.3786 62.1431 51.5612 61.9032 51.7493 61.6561C51.9308 61.4117 52.1123 61.1672 52.2992 60.9154C53.606 59.1615 53.606 59.1615 53.9929 58.7764ZM53.9929 61.1392C53.678 61.5613 53.3774 61.9941 53.0843 62.4314C52.9218 62.6713 52.7593 62.9112 52.5918 63.1583C52.1626 63.7585 52.1626 63.7585 52.2129 64.3882C52.8982 64.3882 53.5835 64.3882 54.2895 64.3882C54.2895 63.316 54.2895 62.2439 54.2895 61.1392C54.1916 61.1392 54.0937 61.1392 53.9929 61.1392Z" fill="#7A8582"/>
<path d="M19.5801 58.1855C22.2234 58.1855 24.8667 58.1855 27.5901 58.1855C27.5901 58.8678 27.5901 59.5501 27.5901 60.2531C26.6111 60.2531 25.6321 60.2531 24.6234 60.2531C24.6234 62.8847 24.6234 65.5163 24.6234 68.2277C23.8402 68.2277 23.057 68.2277 22.2501 68.2277C22.2501 65.5961 22.2501 62.9644 22.2501 60.2531C21.369 60.2531 20.4879 60.2531 19.5801 60.2531C19.5801 59.5708 19.5801 58.8885 19.5801 58.1855Z" fill="#7A8582"/>
<path d="M28.7764 58.1855C29.4617 58.1855 30.147 58.1855 30.853 58.1855C30.853 61.4995 30.853 64.8134 30.853 68.2277C30.1677 68.2277 29.4824 68.2277 28.7764 68.2277C28.7764 64.9138 28.7764 61.5999 28.7764 58.1855Z" fill="#7A8582"/>
</svg>
